<svg xmlns="http://www.w3.org/2000/svg" xmlns:xlink="http://www.w3.org/1999/xlink" width="500" zoomAndPan="magnify" viewBox="0 0 375 374.999991" height="500" preserveAspectRatio="xMidYMid meet" version="1.0"><defs><clipPath id="id1"><path d="M 0 131.558594 L 115.53125 131.558594 L 115.53125 261.308594 L 0 261.308594 Z M 0 131.558594 " clip-rule="nonzero"/></clipPath><clipPath id="id2"><path d="M 30.171875 8.347656 L 348 8.347656 L 348 370.597656 L 30.171875 370.597656 Z M 30.171875 8.347656 " clip-rule="nonzero"/></clipPath></defs><g clip-path="url(#id1)"><path fill="rgb(99.21875%, 95.289612%, 90.19928%)" d="M 193.804688 357.222656 L -46.257812 357.222656 C -49.140625 357.222656 -51.476562 354.871094 -51.476562 352.003906 L -51.476562 111.941406 C -51.476562 109.070312 -49.140625 106.722656 -46.257812 106.722656 L 193.804688 106.722656 C 196.675781 106.722656 199.023438 109.070312 199.023438 111.941406 L 199.023438 352.003906 C 199.023438 354.871094 196.675781 357.222656 193.804688 357.222656 Z M -41.039062 346.785156 L 188.585938 346.785156 L 188.585938 117.160156 L -41.039062 117.160156 Z M -41.039062 346.785156 " fill-opacity="1" fill-rule="nonzero"/></g><g clip-path="url(#id2)"><path fill="rgb(98.429871%, 57.249451%, 23.529053%)" d="M 189.171875 176.605469 C 147.496094 137.910156 91.902344 114.113281 30.582031 114.113281 L 30.582031 308.019531 C 91.902344 308.019531 147.496094 331.816406 189.171875 370.507812 C 230.847656 331.816406 286.441406 308.019531 347.761719 308.019531 L 347.761719 114.113281 C 286.441406 114.113281 230.847656 137.910156 189.171875 176.605469 Z M 189.171875 114.113281 C 218.335938 114.113281 242.035156 90.40625 242.035156 61.230469 C 242.035156 32.058594 218.335938 8.347656 189.171875 8.347656 C 160.007812 8.347656 136.308594 32.058594 136.308594 61.230469 C 136.308594 90.40625 160.007812 114.113281 189.171875 114.113281 Z M 189.171875 114.113281 " fill-opacity="1" fill-rule="nonzero"/></g></svg>