<?xml version="1.0" standalone="no"?>
<!DOCTYPE svg PUBLIC "-//W3C//DTD SVG 20010904//EN"
 "http://www.w3.org/TR/2001/REC-SVG-20010904/DTD/svg10.dtd">
<svg version="1.0" xmlns="http://www.w3.org/2000/svg"
 width="700.000000pt" height="700.000000pt" viewBox="0 0 700.000000 700.000000"
 preserveAspectRatio="xMidYMid meet">
<metadata>
Created by potrace 1.14, written by Peter Selinger 2001-2017
</metadata>
<g transform="translate(0.000000,700.000000) scale(0.100000,-0.100000)"
fill="#000000" stroke="none">
<path d="M3569 6846 c-2 -2 -44 -5 -94 -7 -49 -1 -103 -6 -120 -10 -16 -5 -46
-11 -65 -14 -84 -15 -248 -93 -348 -167 -148 -109 -296 -311 -342 -463 -45
-154 -54 -211 -53 -340 4 -552 466 -994 1015 -971 128 6 140 7 223 30 79 22
76 21 110 35 266 106 487 341 573 611 58 182 63 400 14 570 -79 270 -264 495
-509 619 -109 54 -214 86 -328 97 -33 3 -63 8 -66 10 -3 2 -8 2 -10 0z"/>
<path d="M570 3061 l0 -1811 83 -1 c121 -1 296 -12 391 -24 17 -2 56 -7 86
-10 44 -5 232 -37 359 -61 131 -25 564 -156 656 -198 17 -8 69 -30 118 -50
411 -169 913 -490 1232 -788 34 -32 38 -33 57 -15 13 12 146 127 198 171 259
216 643 453 975 601 219 98 606 228 775 261 14 3 45 10 70 15 25 6 56 13 70
15 187 34 209 38 295 49 90 11 109 13 205 20 154 12 181 13 268 14 l82 1 0
1811 0 1812 -169 -7 c-92 -4 -179 -8 -192 -11 -13 -2 -56 -6 -94 -9 -39 -4
-84 -9 -100 -11 -17 -3 -43 -7 -60 -10 -16 -2 -48 -7 -70 -10 -36 -5 -75 -12
-167 -30 -63 -12 -86 -17 -143 -32 -33 -8 -68 -16 -77 -18 -77 -15 -405 -119
-475 -151 -17 -8 -35 -14 -40 -14 -4 -1 -26 -9 -48 -20 -22 -11 -43 -19 -47
-20 -8 0 -184 -82 -273 -127 -49 -24 -68 -34 -190 -103 -160 -89 -319 -195
-495 -329 -125 -95 -142 -110 -252 -208 -32 -29 -61 -53 -65 -53 -5 0 -21 13
-38 28 -207 192 -568 451 -813 584 -125 67 -413 208 -427 208 -2 0 -28 11 -57
24 -92 41 -457 162 -548 181 -8 2 -37 9 -65 15 -27 6 -57 13 -65 15 -43 10
-221 44 -260 50 -25 4 -58 9 -75 11 -39 7 -96 13 -165 19 -30 3 -73 8 -95 10
-22 3 -110 8 -197 11 l-158 7 0 -1812z"/>
</g>
</svg>
