<svg xmlns="http://www.w3.org/2000/svg" xmlns:xlink="http://www.w3.org/1999/xlink" width="500" zoomAndPan="magnify" viewBox="0 0 375 374.999991" height="500" preserveAspectRatio="xMidYMid meet" version="1.0"><defs><g/><clipPath id="id1"><path d="M 21.964844 116 L 181 116 L 181 231.136719 L 21.964844 231.136719 Z M 21.964844 116 " clip-rule="nonzero"/></clipPath><clipPath id="id2"><path d="M 194 116 L 352.714844 116 L 352.714844 231.136719 L 194 231.136719 Z M 194 116 " clip-rule="nonzero"/></clipPath><clipPath id="id3"><path d="M 100.171875 71 L 202 71 L 202 175 L 100.171875 175 Z M 100.171875 71 " clip-rule="nonzero"/></clipPath></defs><rect x="-37.5" width="450" fill="rgb(100%, 100%, 100%)" y="-37.499999" height="449.999989" fill-opacity="1"/><rect x="-37.5" width="450" fill="rgb(100%, 100%, 100%)" y="-37.499999" height="449.999989" fill-opacity="1"/><rect x="-37.5" width="450" fill="rgb(100%, 100%, 100%)" y="-37.499999" height="449.999989" fill-opacity="1"/><rect x="-37.5" width="450" fill="rgb(100%, 100%, 100%)" y="-37.499999" height="449.999989" fill-opacity="1"/><g clip-path="url(#id1)"><path fill="rgb(12.939453%, 58.81958%, 95.289612%)" d="M 40.851562 215.15625 L 36.839844 132.265625 C 40.765625 131.230469 44.558594 130.566406 48.1875 130.199219 L 47.449219 118.777344 C 33.464844 116.632812 21.964844 116.988281 21.964844 116.988281 L 29.335938 231.101562 C 121.871094 197.953125 180.0625 221.933594 180.0625 221.933594 C 131.644531 190.5 40.851562 215.15625 40.851562 215.15625 " fill-opacity="1" fill-rule="nonzero"/></g><path fill="rgb(12.939453%, 58.81958%, 95.289612%)" d="M 172.664062 208.753906 C 132.265625 173.941406 67.101562 186.1875 67.101562 186.1875 L 63.089844 103.296875 C 94.640625 94.992188 117.515625 110.5 117.515625 110.5 C 100.066406 86.421875 48.214844 88.015625 48.214844 88.015625 L 55.585938 202.132812 C 121.417969 179.257812 172.664062 208.753906 172.664062 208.753906 " fill-opacity="1" fill-rule="nonzero"/><g clip-path="url(#id2)"><path fill="rgb(12.939453%, 58.81958%, 95.289612%)" d="M 327.230469 118.773438 L 326.492188 130.199219 C 330.121094 130.570312 333.914062 131.230469 337.84375 132.265625 L 333.824219 215.15625 C 333.824219 215.15625 243.03125 190.496094 194.617188 221.933594 C 194.617188 221.933594 252.808594 197.953125 345.347656 231.101562 L 352.714844 116.988281 C 352.714844 116.988281 341.214844 116.632812 327.230469 118.773438 " fill-opacity="1" fill-rule="nonzero"/></g><path fill="rgb(12.939453%, 58.81958%, 95.289612%)" d="M 202.015625 208.753906 C 202.015625 208.753906 253.261719 179.257812 319.09375 202.132812 L 326.464844 88.015625 C 326.464844 88.015625 274.613281 86.421875 257.164062 110.5 C 257.164062 110.5 280.039062 94.992188 311.589844 103.296875 L 307.578125 186.1875 C 307.578125 186.1875 242.417969 173.941406 202.015625 208.753906 " fill-opacity="1" fill-rule="nonzero"/><g fill="rgb(0.779724%, 12.939453%, 47.44873%)" fill-opacity="1"><g transform="translate(100.879589, 330.496192)"><g><path d="M 15.484375 -8.078125 C 15.484375 -5.148438 14.921875 -3.035156 13.796875 -1.734375 C 12.679688 -0.441406 10.859375 0.203125 8.328125 0.203125 C 5.609375 0.203125 3.734375 -0.394531 2.703125 -1.59375 C 1.671875 -2.800781 1.15625 -4.960938 1.15625 -8.078125 C 1.15625 -10.972656 1.71875 -13.070312 2.84375 -14.375 C 3.96875 -15.675781 5.796875 -16.328125 8.328125 -16.328125 C 11.046875 -16.328125 12.914062 -15.722656 13.9375 -14.515625 C 14.96875 -13.304688 15.484375 -11.160156 15.484375 -8.078125 Z M 4.125 -3.4375 C 4.445312 -2.851562 4.925781 -2.441406 5.5625 -2.203125 C 6.195312 -1.960938 7.117188 -1.84375 8.328125 -1.84375 C 10.222656 -1.84375 11.519531 -2.300781 12.21875 -3.21875 C 12.925781 -4.132812 13.28125 -5.753906 13.28125 -8.078125 C 13.28125 -9.234375 13.21875 -10.179688 13.09375 -10.921875 C 12.976562 -11.671875 12.789062 -12.273438 12.53125 -12.734375 C 12.207031 -13.316406 11.734375 -13.726562 11.109375 -13.96875 C 10.484375 -14.21875 9.554688 -14.34375 8.328125 -14.34375 C 6.410156 -14.34375 5.101562 -13.878906 4.40625 -12.953125 C 3.707031 -12.035156 3.359375 -10.410156 3.359375 -8.078125 C 3.359375 -6.910156 3.414062 -5.953125 3.53125 -5.203125 C 3.65625 -4.460938 3.851562 -3.875 4.125 -3.4375 Z M 4.125 -3.4375 "/></g></g></g><g fill="rgb(0.779724%, 12.939453%, 47.44873%)" fill-opacity="1"><g transform="translate(117.502367, 330.496192)"><g><path d="M 14.984375 -16.0625 L 14.984375 0 L 12.78125 0 L 3.890625 -12.5 L 3.890625 0 L 1.84375 0 L 1.84375 -16.0625 L 4.046875 -16.0625 L 12.9375 -3.375 L 12.9375 -16.0625 Z M 14.984375 -16.0625 "/></g></g></g><g fill="rgb(0.779724%, 12.939453%, 47.44873%)" fill-opacity="1"><g transform="translate(134.330039, 330.496192)"><g><path d="M 11.6875 -2.046875 L 11.6875 0 L 1.84375 0 L 1.84375 -16.0625 L 4.015625 -16.0625 L 4.015625 -2.046875 Z M 11.6875 -2.046875 "/></g></g></g><g fill="rgb(0.779724%, 12.939453%, 47.44873%)" fill-opacity="1"><g transform="translate(146.41933, 330.496192)"><g><path d="M 4.015625 -16.0625 L 4.015625 0 L 1.84375 0 L 1.84375 -16.0625 Z M 4.015625 -16.0625 "/></g></g></g><g fill="rgb(0.779724%, 12.939453%, 47.44873%)" fill-opacity="1"><g transform="translate(152.284691, 330.496192)"><g><path d="M 14.984375 -16.0625 L 14.984375 0 L 12.78125 0 L 3.890625 -12.5 L 3.890625 0 L 1.84375 0 L 1.84375 -16.0625 L 4.046875 -16.0625 L 12.9375 -3.375 L 12.9375 -16.0625 Z M 14.984375 -16.0625 "/></g></g></g><g fill="rgb(0.779724%, 12.939453%, 47.44873%)" fill-opacity="1"><g transform="translate(169.112363, 330.496192)"><g><path d="M 12.5 -2.046875 L 12.5 0 L 1.84375 0 L 1.84375 -16.0625 L 12.28125 -16.0625 L 12.28125 -14.09375 L 4.015625 -14.09375 L 4.015625 -9.171875 L 11.328125 -9.171875 L 11.328125 -7.25 L 4.015625 -7.25 L 4.015625 -2.046875 Z M 12.5 -2.046875 "/></g></g></g><g fill="rgb(0.779724%, 12.939453%, 47.44873%)" fill-opacity="1"><g transform="translate(182.507906, 330.496192)"><g/></g></g><g fill="rgb(0.779724%, 12.939453%, 47.44873%)" fill-opacity="1"><g transform="translate(186.887717, 330.496192)"><g><path d="M 8.21875 -1.84375 C 8.925781 -1.84375 9.664062 -1.921875 10.4375 -2.078125 C 11.21875 -2.242188 11.941406 -2.460938 12.609375 -2.734375 L 12.609375 -0.796875 C 11.671875 -0.421875 10.835938 -0.160156 10.109375 -0.015625 C 9.378906 0.128906 8.625 0.203125 7.84375 0.203125 C 5.382812 0.203125 3.648438 -0.429688 2.640625 -1.703125 C 1.628906 -2.972656 1.125 -5.097656 1.125 -8.078125 C 1.125 -10.921875 1.707031 -13.003906 2.875 -14.328125 C 4.050781 -15.660156 5.921875 -16.328125 8.484375 -16.328125 C 9.265625 -16.328125 9.960938 -16.304688 10.578125 -16.265625 C 11.191406 -16.234375 11.75 -16.175781 12.25 -16.09375 L 12.25 -14.171875 C 11.65625 -14.234375 11.050781 -14.273438 10.4375 -14.296875 C 9.832031 -14.328125 9.179688 -14.34375 8.484375 -14.34375 C 6.566406 -14.34375 5.234375 -13.867188 4.484375 -12.921875 C 3.734375 -11.972656 3.359375 -10.359375 3.359375 -8.078125 C 3.359375 -5.753906 3.695312 -4.132812 4.375 -3.21875 C 5.0625 -2.300781 6.34375 -1.84375 8.21875 -1.84375 Z M 8.21875 -1.84375 "/></g></g></g><g fill="rgb(0.779724%, 12.939453%, 47.44873%)" fill-opacity="1"><g transform="translate(200.155204, 330.496192)"><g><path d="M 15.484375 -8.078125 C 15.484375 -5.148438 14.921875 -3.035156 13.796875 -1.734375 C 12.679688 -0.441406 10.859375 0.203125 8.328125 0.203125 C 5.609375 0.203125 3.734375 -0.394531 2.703125 -1.59375 C 1.671875 -2.800781 1.15625 -4.960938 1.15625 -8.078125 C 1.15625 -10.972656 1.71875 -13.070312 2.84375 -14.375 C 3.96875 -15.675781 5.796875 -16.328125 8.328125 -16.328125 C 11.046875 -16.328125 12.914062 -15.722656 13.9375 -14.515625 C 14.96875 -13.304688 15.484375 -11.160156 15.484375 -8.078125 Z M 4.125 -3.4375 C 4.445312 -2.851562 4.925781 -2.441406 5.5625 -2.203125 C 6.195312 -1.960938 7.117188 -1.84375 8.328125 -1.84375 C 10.222656 -1.84375 11.519531 -2.300781 12.21875 -3.21875 C 12.925781 -4.132812 13.28125 -5.753906 13.28125 -8.078125 C 13.28125 -9.234375 13.21875 -10.179688 13.09375 -10.921875 C 12.976562 -11.671875 12.789062 -12.273438 12.53125 -12.734375 C 12.207031 -13.316406 11.734375 -13.726562 11.109375 -13.96875 C 10.484375 -14.21875 9.554688 -14.34375 8.328125 -14.34375 C 6.410156 -14.34375 5.101562 -13.878906 4.40625 -12.953125 C 3.707031 -12.035156 3.359375 -10.410156 3.359375 -8.078125 C 3.359375 -6.910156 3.414062 -5.953125 3.53125 -5.203125 C 3.65625 -4.460938 3.851562 -3.875 4.125 -3.4375 Z M 4.125 -3.4375 "/></g></g></g><g fill="rgb(0.779724%, 12.939453%, 47.44873%)" fill-opacity="1"><g transform="translate(216.777982, 330.496192)"><g><path d="M 12.34375 -6.40625 L 12.34375 -16.0625 L 14.53125 -16.0625 L 14.53125 -6.40625 C 14.53125 -4.15625 14.003906 -2.488281 12.953125 -1.40625 C 11.898438 -0.332031 10.273438 0.203125 8.078125 0.203125 C 5.847656 0.203125 4.222656 -0.320312 3.203125 -1.375 C 2.191406 -2.425781 1.6875 -4.101562 1.6875 -6.40625 L 1.6875 -16.0625 L 3.875 -16.0625 L 3.875 -6.40625 C 3.875 -4.71875 4.179688 -3.535156 4.796875 -2.859375 C 5.421875 -2.179688 6.515625 -1.84375 8.078125 -1.84375 C 9.640625 -1.84375 10.738281 -2.179688 11.375 -2.859375 C 12.019531 -3.535156 12.34375 -4.71875 12.34375 -6.40625 Z M 12.34375 -6.40625 "/></g></g></g><g fill="rgb(0.779724%, 12.939453%, 47.44873%)" fill-opacity="1"><g transform="translate(232.990948, 330.496192)"><g><path d="M 4.015625 -5.765625 L 4.015625 0 L 1.84375 0 L 1.84375 -16.0625 L 7.296875 -16.0625 C 9.578125 -16.0625 11.207031 -15.671875 12.1875 -14.890625 C 13.164062 -14.117188 13.65625 -12.835938 13.65625 -11.046875 C 13.65625 -9.640625 13.34375 -8.519531 12.71875 -7.6875 C 12.09375 -6.863281 11.148438 -6.304688 9.890625 -6.015625 L 14.09375 0 L 11.484375 0 L 7.578125 -5.765625 Z M 11.453125 -11.046875 C 11.453125 -12.140625 11.132812 -12.921875 10.5 -13.390625 C 9.875 -13.859375 8.804688 -14.09375 7.296875 -14.09375 L 4.015625 -14.09375 L 4.015625 -7.6875 L 7.296875 -7.6875 C 8.765625 -7.6875 9.820312 -7.953125 10.46875 -8.484375 C 11.125 -9.015625 11.453125 -9.867188 11.453125 -11.046875 Z M 11.453125 -11.046875 "/></g></g></g><g fill="rgb(0.779724%, 12.939453%, 47.44873%)" fill-opacity="1"><g transform="translate(247.820823, 330.496192)"><g><path d="M 8.046875 -6.734375 L 4.15625 -7.65625 C 3.070312 -7.914062 2.289062 -8.359375 1.8125 -8.984375 C 1.34375 -9.609375 1.109375 -10.472656 1.109375 -11.578125 C 1.109375 -13.203125 1.570312 -14.398438 2.5 -15.171875 C 3.425781 -15.941406 4.875 -16.328125 6.84375 -16.328125 C 7.664062 -16.328125 8.40625 -16.285156 9.0625 -16.203125 C 9.71875 -16.128906 10.328125 -16.015625 10.890625 -15.859375 L 10.890625 -13.890625 C 10.171875 -14.054688 9.484375 -14.171875 8.828125 -14.234375 C 8.179688 -14.304688 7.507812 -14.34375 6.8125 -14.34375 C 5.5 -14.34375 4.578125 -14.148438 4.046875 -13.765625 C 3.515625 -13.390625 3.25 -12.710938 3.25 -11.734375 C 3.25 -11.117188 3.375 -10.648438 3.625 -10.328125 C 3.875 -10.015625 4.28125 -9.789062 4.84375 -9.65625 L 8.71875 -8.734375 C 10.082031 -8.410156 10.988281 -7.953125 11.4375 -7.359375 C 11.894531 -6.773438 12.125 -5.867188 12.125 -4.640625 C 12.125 -2.878906 11.664062 -1.628906 10.75 -0.890625 C 9.832031 -0.160156 8.382812 0.203125 6.40625 0.203125 C 5.363281 0.203125 4.359375 0.132812 3.390625 0 C 2.429688 -0.132812 1.671875 -0.3125 1.109375 -0.53125 L 1.109375 -2.59375 C 1.910156 -2.351562 2.757812 -2.164062 3.65625 -2.03125 C 4.5625 -1.90625 5.476562 -1.84375 6.40625 -1.84375 C 7.6875 -1.84375 8.582031 -2.03125 9.09375 -2.40625 C 9.601562 -2.78125 9.859375 -3.507812 9.859375 -4.59375 C 9.859375 -5.257812 9.734375 -5.738281 9.484375 -6.03125 C 9.242188 -6.332031 8.765625 -6.566406 8.046875 -6.734375 Z M 8.046875 -6.734375 "/></g></g></g><g fill="rgb(0.779724%, 12.939453%, 47.44873%)" fill-opacity="1"><g transform="translate(260.72974, 330.496192)"><g><path d="M 12.5 -2.046875 L 12.5 0 L 1.84375 0 L 1.84375 -16.0625 L 12.28125 -16.0625 L 12.28125 -14.09375 L 4.015625 -14.09375 L 4.015625 -9.171875 L 11.328125 -9.171875 L 11.328125 -7.25 L 4.015625 -7.25 L 4.015625 -2.046875 Z M 12.5 -2.046875 "/></g></g></g><path stroke-linecap="round" transform="matrix(5.991859, 0, 0, 5.907692, 18.995172, 321.611492)" fill="none" stroke-linejoin="miter" d="M 0.500181 0.000302922 L 11.017055 0.000302922 " stroke="rgb(98.429871%, 57.249451%, 23.529053%)" stroke-width="1" stroke-opacity="1" stroke-miterlimit="4"/><path stroke-linecap="round" transform="matrix(5.991859, 0, 0, 5.907692, 286.901938, 321.611492)" fill="none" stroke-linejoin="miter" d="M 0.500095 0.000302922 L 11.016969 0.000302922 " stroke="rgb(98.429871%, 57.249451%, 23.529053%)" stroke-width="1" stroke-opacity="1" stroke-miterlimit="4"/><g clip-path="url(#id3)"><path fill="rgb(0%, 0%, 0%)" d="M 150.195312 159.839844 L 169.695312 174.109375 C 171.761719 175.601562 174.636719 173.839844 174.21875 171.332031 L 171.820312 155.839844 L 172.390625 155.632812 C 190.152344 148.378906 201.777344 132.945312 201.777344 115.574219 C 201.777344 91.097656 178.949219 71.457031 150.972656 71.457031 C 122.996094 71.457031 100.171875 91.097656 100.171875 115.574219 C 100.171875 139.304688 121.710938 158.617188 148.699219 159.691406 C 148.699219 159.691406 150.164062 159.808594 150.195312 159.839844 Z M 146.121094 110.261719 C 145.523438 110.441406 144.921875 110.589844 144.324219 110.769531 C 144.355469 108.917969 144.503906 106.976562 144.804688 104.976562 C 148.546875 104.710938 152.472656 104.113281 156.425781 103.277344 C 158.28125 102.859375 160.050781 102.472656 161.636719 101.992188 C 162.597656 101.785156 163.316406 101.546875 163.703125 101.425781 C 165.203125 100.949219 166.042969 99.335938 165.589844 97.875 C 165.113281 96.351562 163.496094 95.488281 161.96875 95.992188 C 161.667969 96.082031 161.039062 96.234375 160.140625 96.472656 C 158.640625 96.917969 156.996094 97.308594 155.226562 97.695312 C 152.050781 98.351562 148.9375 98.859375 145.941406 99.128906 C 146.183594 98.203125 146.421875 97.335938 146.722656 96.410156 C 147.171875 94.859375 146.300781 93.246094 144.773438 92.800781 C 143.277344 92.351562 141.660156 93.21875 141.210938 94.710938 C 140.730469 96.292969 140.3125 97.875 139.980469 99.367188 C 137.195312 99.308594 134.769531 98.980469 132.792969 98.351562 C 131.265625 97.875 129.648438 98.679688 129.167969 100.203125 C 128.6875 101.726562 129.527344 103.308594 131.023438 103.785156 C 133.390625 104.558594 136.058594 104.976562 138.960938 105.066406 C 138.632812 107.84375 138.511719 110.441406 138.601562 112.976562 C 136.804688 113.8125 135.128906 114.707031 133.691406 115.722656 C 127.941406 119.574219 125.542969 124.589844 128.628906 129.933594 C 131.953125 135.8125 138.753906 135.691406 145.191406 130.917969 C 149.777344 127.515625 153.941406 122.050781 156.964844 115.425781 C 161.070312 116.320312 163.914062 118.917969 163.914062 122.859375 C 163.914062 125.84375 162.117188 128.050781 158.761719 129.691406 C 157.472656 130.378906 156.066406 130.828125 154.660156 131.183594 C 153.820312 131.425781 153.191406 131.515625 152.890625 131.542969 C 151.304688 131.78125 150.195312 133.183594 150.40625 134.765625 C 150.613281 136.320312 152.050781 137.453125 153.640625 137.214844 C 155.617188 136.976562 158.433594 136.257812 161.308594 134.855469 C 166.429688 132.320312 169.664062 128.378906 169.664062 122.859375 C 169.664062 115.871094 165.171875 111.546875 159.0625 109.992188 C 159.183594 109.574219 159.300781 109.1875 159.421875 108.800781 C 159.902344 107.277344 159.03125 105.664062 157.503906 105.1875 C 155.976562 104.738281 154.390625 105.636719 153.941406 107.128906 C 153.699219 107.875 153.460938 108.558594 153.222656 109.277344 C 151.484375 109.277344 149.6875 109.484375 147.890625 109.84375 C 147.320312 109.992188 146.722656 110.140625 146.121094 110.261719 Z M 146.902344 115.992188 C 146.152344 116.203125 145.402344 116.46875 144.625 116.707031 C 144.894531 118.738281 145.253906 120.617188 145.761719 122.410156 C 145.792969 122.441406 145.792969 122.441406 145.792969 122.53125 C 147.558594 120.441406 149.238281 117.960938 150.675781 115.214844 C 150.136719 115.246094 149.597656 115.335938 149.085938 115.484375 C 148.367188 115.605469 147.648438 115.8125 146.902344 115.992188 Z M 139.171875 119.066406 C 139.441406 120.738281 139.800781 122.410156 140.222656 123.933594 C 140.550781 125.066406 140.851562 125.992188 141.148438 126.738281 C 137.464844 129.304688 134.828125 129.246094 133.601562 127.097656 C 132.371094 124.917969 133.363281 122.859375 136.925781 120.410156 C 137.585938 119.992188 138.363281 119.542969 139.171875 119.066406 Z M 139.171875 119.066406 " fill-opacity="1" fill-rule="evenodd"/></g><path fill="rgb(0%, 0%, 0%)" d="M 180.777344 73.1875 C 190.09375 63.339844 204.230469 57.101562 219.988281 57.101562 C 247.964844 57.101562 270.789062 76.769531 270.789062 101.21875 C 270.789062 124.976562 249.28125 144.289062 222.265625 145.332031 C 222.265625 145.332031 220.796875 145.484375 220.765625 145.484375 L 201.265625 159.75 C 199.199219 161.273438 196.355469 159.511719 196.742188 156.976562 L 199.109375 141.78125 C 204.5 134.082031 207.527344 125.097656 207.527344 115.574219 C 207.527344 97.546875 196.804688 81.933594 180.777344 73.1875 Z M 233.046875 108.410156 L 236.222656 117.902344 C 236.730469 119.394531 238.347656 120.199219 239.847656 119.695312 C 241.375 119.246094 242.183594 117.574219 241.675781 116.082031 L 230.171875 81.726562 C 229.304688 79.097656 225.589844 79.097656 224.71875 81.726562 L 213.21875 116.082031 C 212.710938 117.574219 213.519531 119.246094 215.046875 119.695312 C 216.542969 120.199219 218.160156 119.394531 218.667969 117.902344 L 221.875 108.410156 Z M 231.128906 102.679688 L 223.792969 102.679688 L 227.476562 91.726562 Z M 231.128906 102.679688 " fill-opacity="1" fill-rule="evenodd"/><g fill="rgb(0%, 0%, 0%)" fill-opacity="1"><g transform="translate(5.319416, 291.629941)"><g><path d="M 22.9375 1.28125 C 19.300781 1.28125 15.976562 0.414062 12.96875 -1.3125 C 9.957031 -3.039062 7.566406 -5.503906 5.796875 -8.703125 C 4.023438 -11.910156 3.140625 -15.648438 3.140625 -19.921875 C 3.140625 -24.234375 3.992188 -28.035156 5.703125 -31.328125 C 7.410156 -34.617188 9.84375 -37.171875 13 -38.984375 C 16.164062 -40.796875 19.863281 -41.703125 24.09375 -41.703125 C 27.757812 -41.703125 31.023438 -40.960938 33.890625 -39.484375 C 36.753906 -38.015625 38.1875 -35.742188 38.1875 -32.671875 C 38.226562 -30.753906 37.648438 -29.117188 36.453125 -27.765625 C 35.253906 -26.421875 33.648438 -25.75 31.640625 -25.75 C 30.878906 -25.75 30.226562 -25.890625 29.6875 -26.171875 C 29.15625 -26.453125 28.757812 -26.78125 28.5 -27.15625 C 28.25 -27.539062 28.144531 -27.84375 28.1875 -28.0625 C 28.1875 -28.144531 28.484375 -28.378906 29.078125 -28.765625 C 29.679688 -29.148438 30.21875 -29.679688 30.6875 -30.359375 C 31.15625 -31.046875 31.390625 -31.878906 31.390625 -32.859375 C 31.390625 -34.785156 30.738281 -36.3125 29.4375 -37.4375 C 28.132812 -38.570312 26.332031 -39.140625 24.03125 -39.140625 C 21.414062 -39.140625 19.09375 -38.398438 17.0625 -36.921875 C 15.039062 -35.453125 13.460938 -33.296875 12.328125 -30.453125 C 11.203125 -27.617188 10.640625 -24.238281 10.640625 -20.3125 C 10.640625 -16.894531 11.242188 -13.785156 12.453125 -10.984375 C 13.671875 -8.191406 15.390625 -5.972656 17.609375 -4.328125 C 19.835938 -2.679688 22.378906 -1.859375 25.234375 -1.859375 C 27.546875 -1.859375 29.523438 -2.335938 31.171875 -3.296875 C 32.816406 -4.253906 34.300781 -5.800781 35.625 -7.9375 C 35.832031 -8.320312 36.128906 -8.515625 36.515625 -8.515625 C 36.859375 -8.515625 37.242188 -8.390625 37.671875 -8.140625 C 38.347656 -7.671875 38.6875 -7.203125 38.6875 -6.734375 C 38.6875 -6.472656 38.601562 -6.257812 38.4375 -6.09375 C 36.8125 -4.039062 35.285156 -2.488281 33.859375 -1.4375 C 32.429688 -0.394531 30.882812 0.316406 29.21875 0.703125 C 27.550781 1.085938 25.457031 1.28125 22.9375 1.28125 Z M 22.9375 1.28125 "/></g></g></g><g fill="rgb(0%, 0%, 0%)" fill-opacity="1"><g transform="translate(46.251947, 291.629941)"><g><path d="M 23.453125 1.28125 C 19.390625 1.28125 15.8125 0.3125 12.71875 -1.625 C 9.625 -3.570312 7.234375 -6.144531 5.546875 -9.34375 C 3.859375 -12.550781 3.015625 -15.992188 3.015625 -19.671875 C 3.015625 -24.148438 4.023438 -28.054688 6.046875 -31.390625 C 8.078125 -34.722656 10.671875 -37.273438 13.828125 -39.046875 C 16.992188 -40.816406 20.203125 -41.703125 23.453125 -41.703125 C 27.546875 -41.703125 31.160156 -40.726562 34.296875 -38.78125 C 37.441406 -36.84375 39.859375 -34.28125 41.546875 -31.09375 C 43.234375 -27.914062 44.078125 -24.492188 44.078125 -20.828125 C 44.078125 -16.335938 43.050781 -12.414062 41 -9.0625 C 38.945312 -5.707031 36.316406 -3.144531 33.109375 -1.375 C 29.910156 0.394531 26.691406 1.28125 23.453125 1.28125 Z M 23.390625 -1.53125 C 26.285156 -1.53125 28.703125 -2.394531 30.640625 -4.125 C 32.585938 -5.863281 34.039062 -8.191406 35 -11.109375 C 35.96875 -14.035156 36.453125 -17.273438 36.453125 -20.828125 C 36.453125 -24.109375 35.957031 -27.125 34.96875 -29.875 C 33.988281 -32.632812 32.515625 -34.835938 30.546875 -36.484375 C 28.585938 -38.128906 26.203125 -38.953125 23.390625 -38.953125 C 19.117188 -38.953125 15.898438 -37.144531 13.734375 -33.53125 C 11.578125 -29.925781 10.5 -25.367188 10.5 -19.859375 C 10.5 -16.523438 10.976562 -13.46875 11.9375 -10.6875 C 12.90625 -7.914062 14.347656 -5.695312 16.265625 -4.03125 C 18.191406 -2.363281 20.566406 -1.53125 23.390625 -1.53125 Z M 23.390625 -1.53125 "/></g></g></g><g fill="rgb(0%, 0%, 0%)" fill-opacity="1"><g transform="translate(93.333978, 291.629941)"><g><path d="M 23 1.28125 C 19.707031 1.28125 16.894531 0.707031 14.5625 -0.4375 C 12.238281 -1.59375 10.476562 -3.109375 9.28125 -4.984375 C 8.09375 -6.867188 7.5 -8.898438 7.5 -11.078125 L 7.5 -32.921875 C 7.457031 -33.992188 7.359375 -34.859375 7.203125 -35.515625 C 7.054688 -36.179688 6.679688 -36.738281 6.078125 -37.1875 C 5.484375 -37.632812 4.566406 -37.859375 3.328125 -37.859375 L 2.953125 -37.859375 C 2.523438 -37.859375 2.222656 -37.929688 2.046875 -38.078125 C 1.878906 -38.234375 1.773438 -38.609375 1.734375 -39.203125 C 1.734375 -39.585938 1.828125 -39.914062 2.015625 -40.1875 C 2.210938 -40.46875 2.503906 -40.609375 2.890625 -40.609375 C 5.617188 -40.484375 8.132812 -40.421875 10.4375 -40.421875 C 13.039062 -40.421875 15.710938 -40.484375 18.453125 -40.609375 C 18.835938 -40.609375 19.125 -40.46875 19.3125 -40.1875 C 19.507812 -39.914062 19.609375 -39.585938 19.609375 -39.203125 C 19.566406 -38.609375 19.445312 -38.234375 19.25 -38.078125 C 19.0625 -37.929688 18.753906 -37.859375 18.328125 -37.859375 C 16.953125 -37.859375 15.941406 -37.644531 15.296875 -37.21875 C 14.660156 -36.789062 14.269531 -36.253906 14.125 -35.609375 C 13.976562 -34.972656 13.882812 -34.078125 13.84375 -32.921875 L 13.84375 -12.9375 C 13.84375 -9.988281 14.535156 -7.507812 15.921875 -5.5 C 17.304688 -3.5 20.007812 -2.5 24.03125 -2.5 C 27.957031 -2.5 30.738281 -3.40625 32.375 -5.21875 C 34.019531 -7.03125 34.84375 -9.304688 34.84375 -12.046875 L 34.84375 -28.890625 C 34.84375 -31.796875 34.734375 -33.847656 34.515625 -35.046875 C 34.304688 -36.242188 33.878906 -37.007812 33.234375 -37.34375 C 32.597656 -37.6875 31.492188 -37.859375 29.921875 -37.859375 L 29.53125 -37.859375 C 29.144531 -37.859375 28.851562 -37.929688 28.65625 -38.078125 C 28.46875 -38.234375 28.351562 -38.609375 28.3125 -39.203125 C 28.3125 -39.585938 28.40625 -39.914062 28.59375 -40.1875 C 28.789062 -40.46875 29.082031 -40.609375 29.46875 -40.609375 C 32.25 -40.484375 34.640625 -40.421875 36.640625 -40.421875 C 38.691406 -40.421875 41.082031 -40.484375 43.8125 -40.609375 C 44.195312 -40.609375 44.484375 -40.46875 44.671875 -40.1875 C 44.867188 -39.914062 44.96875 -39.585938 44.96875 -39.203125 C 44.925781 -38.609375 44.804688 -38.234375 44.609375 -38.078125 C 44.421875 -37.929688 44.113281 -37.859375 43.6875 -37.859375 C 41.976562 -37.859375 40.789062 -37.707031 40.125 -37.40625 C 39.46875 -37.113281 39.019531 -36.398438 38.78125 -35.265625 C 38.550781 -34.128906 38.4375 -32.132812 38.4375 -29.28125 L 38.4375 -11.40625 C 38.4375 -8.539062 37.644531 -6.15625 36.0625 -4.25 C 34.488281 -2.351562 32.515625 -0.957031 30.140625 -0.0625 C 27.773438 0.832031 25.394531 1.28125 23 1.28125 Z M 23 1.28125 "/></g></g></g><g fill="rgb(0%, 0%, 0%)" fill-opacity="1"><g transform="translate(139.455142, 291.629941)"><g><path d="M 3.90625 0.1875 C 3.519531 0.1875 3.226562 0.0507812 3.03125 -0.21875 C 2.84375 -0.5 2.75 -0.832031 2.75 -1.21875 C 2.789062 -1.851562 2.914062 -2.234375 3.125 -2.359375 C 3.34375 -2.492188 3.753906 -2.5625 4.359375 -2.5625 C 5.597656 -2.5625 6.515625 -2.785156 7.109375 -3.234375 C 7.710938 -3.679688 8.085938 -4.234375 8.234375 -4.890625 C 8.378906 -5.554688 8.472656 -6.425781 8.515625 -7.5 L 8.515625 -32.859375 C 8.472656 -33.972656 8.378906 -34.847656 8.234375 -35.484375 C 8.085938 -36.128906 7.710938 -36.6875 7.109375 -37.15625 C 6.515625 -37.625 5.597656 -37.859375 4.359375 -37.859375 L 3.96875 -37.859375 C 3.539062 -37.859375 3.238281 -37.929688 3.0625 -38.078125 C 2.894531 -38.234375 2.789062 -38.609375 2.75 -39.203125 C 2.75 -39.585938 2.84375 -39.914062 3.03125 -40.1875 C 3.226562 -40.46875 3.519531 -40.609375 3.90625 -40.609375 C 6.6875 -40.484375 9.226562 -40.421875 11.53125 -40.421875 L 22.546875 -40.421875 C 25.835938 -40.378906 28.582031 -39.851562 30.78125 -38.84375 C 32.976562 -37.84375 34.585938 -36.5625 35.609375 -35 C 36.640625 -33.445312 37.15625 -31.773438 37.15625 -29.984375 C 37.15625 -27.628906 36.222656 -25.46875 34.359375 -23.5 C 32.503906 -21.539062 29.976562 -20.132812 26.78125 -19.28125 L 27.875 -17.546875 C 29.664062 -14.648438 31.285156 -12.164062 32.734375 -10.09375 C 34.191406 -8.019531 35.773438 -6.085938 37.484375 -4.296875 C 38.671875 -3.304688 39.953125 -2.726562 41.328125 -2.5625 C 41.410156 -2.5625 41.597656 -2.550781 41.890625 -2.53125 C 42.191406 -2.507812 42.4375 -2.390625 42.625 -2.171875 C 42.820312 -1.960938 42.921875 -1.644531 42.921875 -1.21875 C 42.921875 -0.832031 42.820312 -0.5 42.625 -0.21875 C 42.4375 0.0507812 42.148438 0.1875 41.765625 0.1875 L 40.109375 0.125 C 38.222656 0.0390625 36.851562 0 36 0 C 34.289062 -0.34375 32.828125 -0.953125 31.609375 -1.828125 C 30.398438 -2.703125 29.195312 -3.953125 28 -5.578125 C 26.757812 -7.203125 25.03125 -9.847656 22.8125 -13.515625 L 21.65625 -15.375 C 21.007812 -16.351562 20.390625 -17.023438 19.796875 -17.390625 C 19.203125 -17.753906 18.175781 -17.9375 16.71875 -17.9375 L 14.859375 -17.9375 L 14.859375 -7.5 C 14.898438 -6.425781 14.992188 -5.554688 15.140625 -4.890625 C 15.296875 -4.234375 15.671875 -3.679688 16.265625 -3.234375 C 16.867188 -2.785156 17.789062 -2.5625 19.03125 -2.5625 L 19.40625 -2.5625 C 19.789062 -2.5625 20.078125 -2.484375 20.265625 -2.328125 C 20.460938 -2.179688 20.582031 -1.8125 20.625 -1.21875 C 20.625 -0.832031 20.523438 -0.5 20.328125 -0.21875 C 20.140625 0.0507812 19.851562 0.1875 19.46875 0.1875 C 16.738281 0.0625 14.070312 0 11.46875 0 C 9.207031 0 6.6875 0.0625 3.90625 0.1875 Z M 20.5 -20.4375 C 26.863281 -20.4375 30.046875 -23.425781 30.046875 -29.40625 C 30.046875 -31.84375 29.210938 -33.890625 27.546875 -35.546875 C 25.878906 -37.210938 23.144531 -38.046875 19.34375 -38.046875 C 18.101562 -38.046875 17.160156 -37.894531 16.515625 -37.59375 C 15.878906 -37.300781 15.441406 -36.789062 15.203125 -36.0625 C 14.972656 -35.34375 14.859375 -34.234375 14.859375 -32.734375 L 14.859375 -20.4375 Z M 20.5 -20.4375 "/></g></g></g><g fill="rgb(0%, 0%, 0%)" fill-opacity="1"><g transform="translate(182.437515, 291.629941)"><g><path d="M 16.984375 1.28125 C 12.492188 1.28125 9.0625 0.503906 6.6875 -1.046875 C 4.320312 -2.609375 3.140625 -4.90625 3.140625 -7.9375 C 3.140625 -9.476562 3.660156 -10.75 4.703125 -11.75 C 5.753906 -12.757812 7.113281 -13.265625 8.78125 -13.265625 C 9.757812 -13.222656 10.503906 -12.976562 11.015625 -12.53125 C 11.523438 -12.082031 11.78125 -11.664062 11.78125 -11.28125 C 11.78125 -11.238281 11.566406 -11.085938 11.140625 -10.828125 C 10.710938 -10.566406 10.328125 -10.179688 9.984375 -9.671875 C 9.648438 -9.160156 9.484375 -8.457031 9.484375 -7.5625 C 9.484375 -5.550781 10.09375 -4 11.3125 -2.90625 C 12.53125 -1.820312 14.421875 -1.28125 16.984375 -1.28125 C 18.734375 -1.28125 20.269531 -1.617188 21.59375 -2.296875 C 22.914062 -2.984375 23.925781 -3.894531 24.625 -5.03125 C 25.332031 -6.164062 25.6875 -7.347656 25.6875 -8.578125 C 25.6875 -10.117188 25.25 -11.441406 24.375 -12.546875 C 23.5 -13.660156 22.421875 -14.59375 21.140625 -15.34375 C 19.859375 -16.09375 18.109375 -16.957031 15.890625 -17.9375 C 13.328125 -19.09375 11.253906 -20.140625 9.671875 -21.078125 C 8.085938 -22.015625 6.738281 -23.257812 5.625 -24.8125 C 4.519531 -26.375 3.96875 -28.3125 3.96875 -30.625 C 3.96875 -34.34375 5.238281 -37.117188 7.78125 -38.953125 C 10.320312 -40.785156 13.664062 -41.703125 17.8125 -41.703125 C 21.050781 -41.703125 23.878906 -41.019531 26.296875 -39.65625 C 28.710938 -38.289062 29.921875 -36.285156 29.921875 -33.640625 C 29.921875 -32.097656 29.394531 -30.820312 28.34375 -29.8125 C 27.300781 -28.8125 25.945312 -28.3125 24.28125 -28.3125 C 23.300781 -28.351562 22.550781 -28.597656 22.03125 -29.046875 C 21.519531 -29.492188 21.265625 -29.910156 21.265625 -30.296875 C 21.265625 -30.335938 21.550781 -30.488281 22.125 -30.75 C 22.707031 -31.007812 23.222656 -31.394531 23.671875 -31.90625 C 24.117188 -32.414062 24.34375 -33.117188 24.34375 -34.015625 C 24.34375 -35.597656 23.734375 -36.835938 22.515625 -37.734375 C 21.296875 -38.628906 19.75 -39.078125 17.875 -39.078125 C 15.269531 -39.078125 13.296875 -38.46875 11.953125 -37.25 C 10.609375 -36.03125 9.9375 -34.523438 9.9375 -32.734375 C 9.9375 -31.242188 10.335938 -29.992188 11.140625 -28.984375 C 11.953125 -27.984375 13.257812 -26.992188 15.0625 -26.015625 C 16.507812 -25.242188 18.085938 -24.472656 19.796875 -23.703125 C 22.523438 -22.460938 24.691406 -21.328125 26.296875 -20.296875 C 27.898438 -19.273438 29.242188 -17.929688 30.328125 -16.265625 C 31.421875 -14.609375 31.96875 -12.539062 31.96875 -10.0625 C 31.96875 -7.925781 31.296875 -5.992188 29.953125 -4.265625 C 28.609375 -2.535156 26.789062 -1.175781 24.5 -0.1875 C 22.21875 0.789062 19.710938 1.28125 16.984375 1.28125 Z M 16.984375 1.28125 "/></g></g></g><g fill="rgb(0%, 0%, 0%)" fill-opacity="1"><g transform="translate(217.348672, 291.629941)"><g><path d="M 3.84375 0.1875 C 3.5 0.1875 3.226562 0.0507812 3.03125 -0.21875 C 2.84375 -0.5 2.75 -0.832031 2.75 -1.21875 C 2.789062 -1.851562 2.914062 -2.234375 3.125 -2.359375 C 3.34375 -2.492188 3.753906 -2.5625 4.359375 -2.5625 C 5.597656 -2.5625 6.515625 -2.785156 7.109375 -3.234375 C 7.710938 -3.679688 8.085938 -4.234375 8.234375 -4.890625 C 8.378906 -5.554688 8.472656 -6.425781 8.515625 -7.5 L 8.515625 -32.921875 C 8.472656 -33.992188 8.378906 -34.859375 8.234375 -35.515625 C 8.085938 -36.179688 7.710938 -36.738281 7.109375 -37.1875 C 6.515625 -37.632812 5.597656 -37.859375 4.359375 -37.859375 L 3.96875 -37.859375 C 3.539062 -37.859375 3.238281 -37.929688 3.0625 -38.078125 C 2.894531 -38.234375 2.789062 -38.609375 2.75 -39.203125 C 2.75 -39.585938 2.84375 -39.914062 3.03125 -40.1875 C 3.226562 -40.46875 3.5 -40.609375 3.84375 -40.609375 C 6.664062 -40.484375 9.207031 -40.421875 11.46875 -40.421875 L 31.578125 -40.421875 C 32.691406 -40.421875 33.25 -39.910156 33.25 -38.890625 L 33.4375 -29.921875 C 33.4375 -29.535156 33.242188 -29.222656 32.859375 -28.984375 C 32.472656 -28.753906 32.09375 -28.640625 31.71875 -28.640625 C 31.195312 -28.640625 30.742188 -28.734375 30.359375 -28.921875 C 29.984375 -29.117188 29.769531 -29.410156 29.71875 -29.796875 C 29.382812 -31.878906 29.015625 -33.46875 28.609375 -34.5625 C 28.203125 -35.65625 27.601562 -36.46875 26.8125 -37 C 26.019531 -37.53125 24.898438 -37.816406 23.453125 -37.859375 L 14.859375 -37.859375 L 14.859375 -21.59375 L 26.453125 -21.59375 C 26.753906 -21.550781 26.988281 -21.390625 27.15625 -21.109375 C 27.332031 -20.828125 27.421875 -20.492188 27.421875 -20.109375 C 27.421875 -19.773438 27.332031 -19.476562 27.15625 -19.21875 C 26.988281 -18.957031 26.753906 -18.828125 26.453125 -18.828125 L 14.859375 -18.828125 L 14.859375 -6.734375 C 14.941406 -5.828125 15.046875 -5.109375 15.171875 -4.578125 C 15.304688 -4.046875 15.691406 -3.566406 16.328125 -3.140625 C 16.972656 -2.710938 17.976562 -2.519531 19.34375 -2.5625 L 25.234375 -2.5625 C 26.734375 -2.601562 27.867188 -2.847656 28.640625 -3.296875 C 29.410156 -3.742188 30.019531 -4.4375 30.46875 -5.375 C 30.914062 -6.320312 31.457031 -7.863281 32.09375 -10 C 32.394531 -10.757812 33.125 -11.054688 34.28125 -10.890625 C 34.707031 -10.804688 35.078125 -10.632812 35.390625 -10.375 C 35.710938 -10.125 35.851562 -9.804688 35.8125 -9.421875 L 34.53125 -1.34375 C 34.40625 -0.789062 34.210938 -0.425781 33.953125 -0.25 C 33.691406 -0.0820312 33.265625 0 32.671875 0 L 11.53125 0 C 9.226562 0 6.664062 0.0625 3.84375 0.1875 Z M 3.84375 0.1875 "/></g></g></g><g fill="rgb(0%, 0%, 0%)" fill-opacity="1"><g transform="translate(255.398645, 291.629941)"><g><path d="M 3.84375 0.1875 C 3.457031 0.1875 3.164062 0.0507812 2.96875 -0.21875 C 2.78125 -0.5 2.6875 -0.832031 2.6875 -1.21875 C 2.726562 -1.851562 2.863281 -2.234375 3.09375 -2.359375 C 3.332031 -2.492188 3.734375 -2.5625 4.296875 -2.5625 C 5.535156 -2.5625 6.453125 -2.785156 7.046875 -3.234375 C 7.640625 -3.679688 8.019531 -4.222656 8.1875 -4.859375 C 8.363281 -5.503906 8.472656 -6.382812 8.515625 -7.5 L 8.515625 -32.921875 C 8.472656 -34.035156 8.363281 -34.910156 8.1875 -35.546875 C 8.019531 -36.191406 7.640625 -36.738281 7.046875 -37.1875 C 6.453125 -37.632812 5.535156 -37.859375 4.296875 -37.859375 L 3.90625 -37.859375 C 3.519531 -37.859375 3.226562 -37.929688 3.03125 -38.078125 C 2.84375 -38.234375 2.726562 -38.609375 2.6875 -39.203125 C 2.6875 -39.585938 2.78125 -39.914062 2.96875 -40.1875 C 3.164062 -40.46875 3.457031 -40.609375 3.84375 -40.609375 C 6.625 -40.484375 9.164062 -40.421875 11.46875 -40.421875 C 14.03125 -40.421875 16.695312 -40.484375 19.46875 -40.609375 C 19.851562 -40.609375 20.140625 -40.46875 20.328125 -40.1875 C 20.523438 -39.914062 20.625 -39.585938 20.625 -39.203125 C 20.582031 -38.566406 20.441406 -38.179688 20.203125 -38.046875 C 19.972656 -37.921875 19.5625 -37.859375 18.96875 -37.859375 C 17.726562 -37.859375 16.804688 -37.632812 16.203125 -37.1875 C 15.609375 -36.738281 15.234375 -36.179688 15.078125 -35.515625 C 14.929688 -34.859375 14.835938 -33.992188 14.796875 -32.921875 L 14.796875 -7.5 C 14.835938 -6.425781 14.929688 -5.554688 15.078125 -4.890625 C 15.234375 -4.234375 15.609375 -3.679688 16.203125 -3.234375 C 16.804688 -2.785156 17.726562 -2.5625 18.96875 -2.5625 L 19.34375 -2.5625 C 19.769531 -2.5625 20.078125 -2.484375 20.265625 -2.328125 C 20.460938 -2.179688 20.582031 -1.8125 20.625 -1.21875 C 20.625 -0.832031 20.523438 -0.5 20.328125 -0.21875 C 20.140625 0.0507812 19.851562 0.1875 19.46875 0.1875 C 16.738281 0.0625 14.09375 0 11.53125 0 C 9.1875 0 6.625 0.0625 3.84375 0.1875 Z M 3.84375 0.1875 "/></g></g></g><g fill="rgb(0%, 0%, 0%)" fill-opacity="1"><g transform="translate(278.71546, 291.629941)"><g><path d="M 3.90625 0.1875 C 3.519531 0.1875 3.226562 0.0507812 3.03125 -0.21875 C 2.84375 -0.5 2.75 -0.832031 2.75 -1.21875 C 2.789062 -1.851562 2.914062 -2.234375 3.125 -2.359375 C 3.34375 -2.492188 3.753906 -2.5625 4.359375 -2.5625 C 5.597656 -2.5625 6.515625 -2.785156 7.109375 -3.234375 C 7.710938 -3.679688 8.085938 -4.234375 8.234375 -4.890625 C 8.378906 -5.554688 8.472656 -6.425781 8.515625 -7.5 L 8.515625 -32.921875 C 8.472656 -33.992188 8.378906 -34.859375 8.234375 -35.515625 C 8.085938 -36.179688 7.710938 -36.738281 7.109375 -37.1875 C 6.515625 -37.632812 5.597656 -37.859375 4.359375 -37.859375 L 3.96875 -37.859375 C 3.539062 -37.859375 3.238281 -37.929688 3.0625 -38.078125 C 2.894531 -38.234375 2.789062 -38.609375 2.75 -39.203125 C 2.75 -39.585938 2.84375 -39.914062 3.03125 -40.1875 C 3.226562 -40.46875 3.519531 -40.609375 3.90625 -40.609375 C 6.6875 -40.484375 9.207031 -40.421875 11.46875 -40.421875 C 14.03125 -40.421875 16.695312 -40.484375 19.46875 -40.609375 C 19.851562 -40.609375 20.140625 -40.46875 20.328125 -40.1875 C 20.523438 -39.914062 20.625 -39.585938 20.625 -39.203125 C 20.582031 -38.566406 20.453125 -38.179688 20.234375 -38.046875 C 20.023438 -37.921875 19.625 -37.859375 19.03125 -37.859375 C 17.789062 -37.859375 16.867188 -37.632812 16.265625 -37.1875 C 15.671875 -36.738281 15.296875 -36.179688 15.140625 -35.515625 C 14.992188 -34.859375 14.898438 -33.992188 14.859375 -32.921875 L 14.859375 -21.328125 C 15.546875 -21.460938 16.316406 -21.828125 17.171875 -22.421875 C 18.023438 -23.015625 19.070312 -23.847656 20.3125 -24.921875 C 22.695312 -27.140625 25.707031 -30.40625 29.34375 -34.71875 C 30.113281 -35.570312 30.5 -36.253906 30.5 -36.765625 C 30.5 -37.410156 29.921875 -37.753906 28.765625 -37.796875 C 28.460938 -37.835938 28.257812 -37.953125 28.15625 -38.140625 C 28.050781 -38.335938 27.957031 -38.671875 27.875 -39.140625 C 27.875 -39.523438 27.976562 -39.863281 28.1875 -40.15625 C 28.40625 -40.457031 28.679688 -40.609375 29.015625 -40.609375 C 30.515625 -40.484375 32.863281 -40.421875 36.0625 -40.421875 C 37.09375 -40.421875 38.585938 -40.460938 40.546875 -40.546875 L 41.890625 -40.609375 C 42.273438 -40.609375 42.570312 -40.46875 42.78125 -40.1875 C 43 -39.914062 43.109375 -39.566406 43.109375 -39.140625 C 43.066406 -38.546875 42.9375 -38.171875 42.71875 -38.015625 C 42.507812 -37.867188 42.210938 -37.796875 41.828125 -37.796875 C 40.117188 -37.878906 38.503906 -37.597656 36.984375 -36.953125 C 35.472656 -36.316406 33.882812 -35.164062 32.21875 -33.5 L 21.84375 -22.671875 C 23.34375 -20.835938 24.878906 -19.085938 26.453125 -17.421875 C 28.035156 -15.753906 29.9375 -13.8125 32.15625 -11.59375 C 33.269531 -10.488281 34.59375 -9.125 36.125 -7.5 C 36.601562 -7.03125 36.925781 -6.6875 37.09375 -6.46875 C 38.457031 -5.101562 39.535156 -4.140625 40.328125 -3.578125 C 41.117188 -3.023438 42.09375 -2.6875 43.25 -2.5625 C 43.332031 -2.5625 43.519531 -2.550781 43.8125 -2.53125 C 44.113281 -2.507812 44.359375 -2.390625 44.546875 -2.171875 C 44.742188 -1.960938 44.84375 -1.644531 44.84375 -1.21875 C 44.84375 -0.832031 44.742188 -0.5 44.546875 -0.21875 C 44.359375 0.0507812 44.070312 0.1875 43.6875 0.1875 C 43.175781 0.144531 42.554688 0.125 41.828125 0.125 C 40.296875 0.0390625 39.101562 0 38.25 0 L 34.140625 0 C 28.503906 -6.28125 23.46875 -11.984375 19.03125 -17.109375 C 17.664062 -18.679688 16.273438 -19.535156 14.859375 -19.671875 L 14.859375 -7.5 C 14.898438 -6.425781 14.992188 -5.554688 15.140625 -4.890625 C 15.296875 -4.234375 15.671875 -3.679688 16.265625 -3.234375 C 16.867188 -2.785156 17.789062 -2.5625 19.03125 -2.5625 L 19.40625 -2.5625 C 19.832031 -2.5625 20.128906 -2.484375 20.296875 -2.328125 C 20.472656 -2.179688 20.582031 -1.8125 20.625 -1.21875 C 20.625 -0.832031 20.523438 -0.5 20.328125 -0.21875 C 20.140625 0.0507812 19.851562 0.1875 19.46875 0.1875 C 16.738281 0.0625 14.09375 0 11.53125 0 C 9.226562 0 6.6875 0.0625 3.90625 0.1875 Z M 3.90625 0.1875 "/></g></g></g><g fill="rgb(0%, 0%, 0%)" fill-opacity="1"><g transform="translate(323.555481, 291.629941)"><g><path d="M 23 1.28125 C 19.707031 1.28125 16.894531 0.707031 14.5625 -0.4375 C 12.238281 -1.59375 10.476562 -3.109375 9.28125 -4.984375 C 8.09375 -6.867188 7.5 -8.898438 7.5 -11.078125 L 7.5 -32.921875 C 7.457031 -33.992188 7.359375 -34.859375 7.203125 -35.515625 C 7.054688 -36.179688 6.679688 -36.738281 6.078125 -37.1875 C 5.484375 -37.632812 4.566406 -37.859375 3.328125 -37.859375 L 2.953125 -37.859375 C 2.523438 -37.859375 2.222656 -37.929688 2.046875 -38.078125 C 1.878906 -38.234375 1.773438 -38.609375 1.734375 -39.203125 C 1.734375 -39.585938 1.828125 -39.914062 2.015625 -40.1875 C 2.210938 -40.46875 2.503906 -40.609375 2.890625 -40.609375 C 5.617188 -40.484375 8.132812 -40.421875 10.4375 -40.421875 C 13.039062 -40.421875 15.710938 -40.484375 18.453125 -40.609375 C 18.835938 -40.609375 19.125 -40.46875 19.3125 -40.1875 C 19.507812 -39.914062 19.609375 -39.585938 19.609375 -39.203125 C 19.566406 -38.609375 19.445312 -38.234375 19.25 -38.078125 C 19.0625 -37.929688 18.753906 -37.859375 18.328125 -37.859375 C 16.953125 -37.859375 15.941406 -37.644531 15.296875 -37.21875 C 14.660156 -36.789062 14.269531 -36.253906 14.125 -35.609375 C 13.976562 -34.972656 13.882812 -34.078125 13.84375 -32.921875 L 13.84375 -12.9375 C 13.84375 -9.988281 14.535156 -7.507812 15.921875 -5.5 C 17.304688 -3.5 20.007812 -2.5 24.03125 -2.5 C 27.957031 -2.5 30.738281 -3.40625 32.375 -5.21875 C 34.019531 -7.03125 34.84375 -9.304688 34.84375 -12.046875 L 34.84375 -28.890625 C 34.84375 -31.796875 34.734375 -33.847656 34.515625 -35.046875 C 34.304688 -36.242188 33.878906 -37.007812 33.234375 -37.34375 C 32.597656 -37.6875 31.492188 -37.859375 29.921875 -37.859375 L 29.53125 -37.859375 C 29.144531 -37.859375 28.851562 -37.929688 28.65625 -38.078125 C 28.46875 -38.234375 28.351562 -38.609375 28.3125 -39.203125 C 28.3125 -39.585938 28.40625 -39.914062 28.59375 -40.1875 C 28.789062 -40.46875 29.082031 -40.609375 29.46875 -40.609375 C 32.25 -40.484375 34.640625 -40.421875 36.640625 -40.421875 C 38.691406 -40.421875 41.082031 -40.484375 43.8125 -40.609375 C 44.195312 -40.609375 44.484375 -40.46875 44.671875 -40.1875 C 44.867188 -39.914062 44.96875 -39.585938 44.96875 -39.203125 C 44.925781 -38.609375 44.804688 -38.234375 44.609375 -38.078125 C 44.421875 -37.929688 44.113281 -37.859375 43.6875 -37.859375 C 41.976562 -37.859375 40.789062 -37.707031 40.125 -37.40625 C 39.46875 -37.113281 39.019531 -36.398438 38.78125 -35.265625 C 38.550781 -34.128906 38.4375 -32.132812 38.4375 -29.28125 L 38.4375 -11.40625 C 38.4375 -8.539062 37.644531 -6.15625 36.0625 -4.25 C 34.488281 -2.351562 32.515625 -0.957031 30.140625 -0.0625 C 27.773438 0.832031 25.394531 1.28125 23 1.28125 Z M 23 1.28125 "/></g></g></g></svg>