<svg xmlns="http://www.w3.org/2000/svg" xmlns:xlink="http://www.w3.org/1999/xlink" width="1000" zoomAndPan="magnify" viewBox="0 0 750 374.999991" height="500" preserveAspectRatio="xMidYMid meet" version="1.0"><defs><g/><clipPath id="id1"><path d="M 0 37.5 L 150.621094 37.5 L 150.621094 346.449219 L 0 346.449219 Z M 0 37.5 " clip-rule="nonzero"/></clipPath><clipPath id="id2"><path d="M 9.398438 72.144531 L 216.398438 72.144531 L 216.398438 308.394531 L 9.398438 308.394531 Z M 9.398438 72.144531 " clip-rule="nonzero"/></clipPath></defs><g clip-path="url(#id1)"><path fill="rgb(99.21875%, 95.289612%, 90.19928%)" d="M 336.539062 574.476562 L -234.953125 574.476562 C -241.8125 574.476562 -247.378906 568.882812 -247.378906 562.050781 L -247.378906 -9.441406 C -247.378906 -16.277344 -241.8125 -21.867188 -234.953125 -21.867188 L 336.539062 -21.867188 C 343.375 -21.867188 348.964844 -16.277344 348.964844 -9.441406 L 348.964844 562.050781 C 348.964844 568.882812 343.375 574.476562 336.539062 574.476562 Z M -222.53125 549.628906 L 324.117188 549.628906 L 324.117188 2.980469 L -222.53125 2.980469 Z M -222.53125 549.628906 " fill-opacity="1" fill-rule="nonzero"/></g><g fill="rgb(100%, 100%, 100%)" fill-opacity="1"><g transform="translate(229.257899, 246.884619)"><g><path d="M 44.234375 0.984375 C 36.367188 0.984375 29.503906 -0.671875 23.640625 -3.984375 C 17.785156 -7.296875 13.289062 -11.957031 10.15625 -17.96875 C 7.03125 -23.976562 5.46875 -30.984375 5.46875 -38.984375 C 5.46875 -46.921875 7.03125 -53.894531 10.15625 -59.90625 C 13.289062 -65.914062 17.785156 -70.554688 23.640625 -73.828125 C 29.503906 -77.109375 36.367188 -78.75 44.234375 -78.75 C 49.398438 -78.75 54.332031 -77.960938 59.03125 -76.390625 C 63.726562 -74.828125 67.570312 -72.628906 70.5625 -69.796875 L 65.203125 -57.5625 C 61.710938 -60.175781 58.304688 -62.082031 54.984375 -63.28125 C 51.671875 -64.488281 48.195312 -65.09375 44.5625 -65.09375 C 37.570312 -65.09375 32.21875 -62.867188 28.5 -58.421875 C 24.789062 -53.984375 22.9375 -47.503906 22.9375 -38.984375 C 22.9375 -30.398438 24.789062 -23.867188 28.5 -19.390625 C 32.21875 -14.910156 37.570312 -12.671875 44.5625 -12.671875 C 48.195312 -12.671875 51.671875 -13.269531 54.984375 -14.46875 C 58.304688 -15.675781 61.710938 -17.585938 65.203125 -20.203125 L 70.5625 -7.96875 C 67.570312 -5.132812 63.726562 -2.929688 59.03125 -1.359375 C 54.332031 0.203125 49.398438 0.984375 44.234375 0.984375 Z M 44.234375 0.984375 "/></g></g></g><g fill="rgb(100%, 100%, 100%)" fill-opacity="1"><g transform="translate(304.063871, 246.884619)"><g><path d="M 33.09375 0.875 C 27.195312 0.875 22.046875 -0.285156 17.640625 -2.609375 C 13.234375 -4.941406 9.847656 -8.289062 7.484375 -12.65625 C 5.117188 -17.03125 3.9375 -22.128906 3.9375 -27.953125 C 3.9375 -33.785156 5.117188 -38.882812 7.484375 -43.25 C 9.847656 -47.613281 13.234375 -50.960938 17.640625 -53.296875 C 22.046875 -55.628906 27.195312 -56.796875 33.09375 -56.796875 C 38.914062 -56.796875 44.007812 -55.628906 48.375 -53.296875 C 52.75 -50.960938 56.117188 -47.613281 58.484375 -43.25 C 60.847656 -38.882812 62.03125 -33.785156 62.03125 -27.953125 C 62.03125 -22.128906 60.847656 -17.03125 58.484375 -12.65625 C 56.117188 -8.289062 52.75 -4.941406 48.375 -2.609375 C 44.007812 -0.285156 38.914062 0.875 33.09375 0.875 Z M 33.09375 -11.6875 C 37.164062 -11.6875 40.273438 -13.03125 42.421875 -15.71875 C 44.578125 -18.414062 45.65625 -22.492188 45.65625 -27.953125 C 45.65625 -33.347656 44.578125 -37.410156 42.421875 -40.140625 C 40.273438 -42.867188 37.164062 -44.234375 33.09375 -44.234375 C 28.945312 -44.234375 25.78125 -42.867188 23.59375 -40.140625 C 21.40625 -37.410156 20.3125 -33.347656 20.3125 -27.953125 C 20.3125 -17.109375 24.570312 -11.6875 33.09375 -11.6875 Z M 33.09375 -11.6875 "/></g></g></g><g fill="rgb(100%, 100%, 100%)" fill-opacity="1"><g transform="translate(370.024153, 246.884619)"><g><path d="M 59.53125 -55.375 L 59.53125 0 L 43.46875 0 L 43.46875 -8.078125 C 41.71875 -5.171875 39.421875 -2.953125 36.578125 -1.421875 C 33.742188 0.109375 30.546875 0.875 26.984375 0.875 C 20.054688 0.875 14.878906 -1.050781 11.453125 -4.90625 C 8.035156 -8.769531 6.328125 -14.597656 6.328125 -22.390625 L 6.328125 -55.375 L 22.828125 -55.375 L 22.828125 -22.0625 C 22.828125 -15.363281 25.703125 -12.015625 31.453125 -12.015625 C 34.878906 -12.015625 37.644531 -13.175781 39.75 -15.5 C 41.863281 -17.832031 42.921875 -20.894531 42.921875 -24.6875 L 42.921875 -55.375 Z M 59.53125 -55.375 "/></g></g></g><g fill="rgb(100%, 100%, 100%)" fill-opacity="1"><g transform="translate(436.202867, 246.884619)"><g><path d="M 38.875 -56.6875 C 41.207031 -56.6875 43.175781 -56.320312 44.78125 -55.59375 L 44.671875 -40.515625 C 41.972656 -41.753906 39.28125 -42.375 36.59375 -42.375 C 32.21875 -42.375 28.882812 -41.191406 26.59375 -38.828125 C 24.300781 -36.460938 23.15625 -33.164062 23.15625 -28.9375 L 23.15625 0 L 6.65625 0 L 6.65625 -39.53125 C 6.65625 -45.4375 6.363281 -50.71875 5.78125 -55.375 L 21.296875 -55.375 L 22.390625 -45.875 C 23.773438 -49.363281 25.941406 -52.035156 28.890625 -53.890625 C 31.835938 -55.753906 35.164062 -56.6875 38.875 -56.6875 Z M 38.875 -56.6875 "/></g></g></g><g fill="rgb(100%, 100%, 100%)" fill-opacity="1"><g transform="translate(480.977254, 246.884619)"><g><path d="M 27.84375 0.875 C 17.363281 0.875 9.101562 -1.378906 3.0625 -5.890625 L 7.421875 -17.359375 C 10.335938 -15.253906 13.578125 -13.632812 17.140625 -12.5 C 20.710938 -11.375 24.351562 -10.8125 28.0625 -10.8125 C 30.90625 -10.8125 33.09375 -11.25 34.625 -12.125 C 36.15625 -13 36.921875 -14.273438 36.921875 -15.953125 C 36.921875 -17.328125 36.375 -18.414062 35.28125 -19.21875 C 34.1875 -20.019531 32.253906 -20.710938 29.484375 -21.296875 L 20.421875 -23.375 C 15.109375 -24.539062 11.195312 -26.394531 8.6875 -28.9375 C 6.175781 -31.488281 4.921875 -34.875 4.921875 -39.09375 C 4.921875 -42.519531 5.921875 -45.578125 7.921875 -48.265625 C 9.921875 -50.960938 12.703125 -53.054688 16.265625 -54.546875 C 19.835938 -56.046875 23.953125 -56.796875 28.609375 -56.796875 C 32.546875 -56.796875 36.40625 -56.191406 40.1875 -54.984375 C 43.976562 -53.785156 47.363281 -52.09375 50.34375 -49.90625 L 45.765625 -38.875 C 42.921875 -40.84375 40.023438 -42.335938 37.078125 -43.359375 C 34.128906 -44.378906 31.269531 -44.890625 28.5 -44.890625 C 25.8125 -44.890625 23.703125 -44.414062 22.171875 -43.46875 C 20.640625 -42.519531 19.875 -41.207031 19.875 -39.53125 C 19.875 -38.300781 20.328125 -37.300781 21.234375 -36.53125 C 22.148438 -35.769531 23.773438 -35.132812 26.109375 -34.625 L 35.390625 -32.546875 C 41.066406 -31.234375 45.175781 -29.265625 47.71875 -26.640625 C 50.269531 -24.023438 51.546875 -20.535156 51.546875 -16.171875 C 51.546875 -10.921875 49.429688 -6.765625 45.203125 -3.703125 C 40.984375 -0.648438 35.195312 0.875 27.84375 0.875 Z M 27.84375 0.875 "/></g></g></g><g fill="rgb(100%, 100%, 100%)" fill-opacity="1"><g transform="translate(535.907773, 246.884619)"><g><path d="M 56.359375 -26.328125 L 19.875 -26.328125 C 20.164062 -21.148438 21.507812 -17.378906 23.90625 -15.015625 C 26.3125 -12.648438 29.882812 -11.46875 34.625 -11.46875 C 37.457031 -11.46875 40.296875 -11.941406 43.140625 -12.890625 C 45.984375 -13.835938 48.601562 -15.21875 51 -17.03125 L 55.375 -5.890625 C 52.75 -3.785156 49.488281 -2.128906 45.59375 -0.921875 C 41.695312 0.273438 37.785156 0.875 33.859375 0.875 C 24.535156 0.875 17.21875 -1.691406 11.90625 -6.828125 C 6.59375 -11.960938 3.9375 -18.96875 3.9375 -27.84375 C 3.9375 -33.457031 5.082031 -38.460938 7.375 -42.859375 C 9.664062 -47.265625 12.882812 -50.6875 17.03125 -53.125 C 21.1875 -55.570312 25.882812 -56.796875 31.125 -56.796875 C 38.914062 -56.796875 45.066406 -54.265625 49.578125 -49.203125 C 54.097656 -44.140625 56.359375 -37.3125 56.359375 -28.71875 Z M 31.5625 -45.21875 C 28.4375 -45.21875 25.90625 -44.304688 23.96875 -42.484375 C 22.039062 -40.660156 20.785156 -38.003906 20.203125 -34.515625 L 42.15625 -34.515625 C 41.28125 -41.648438 37.75 -45.21875 31.5625 -45.21875 Z M 31.5625 -45.21875 "/></g></g></g><g fill="rgb(100%, 100%, 100%)" fill-opacity="1"><g transform="translate(595.967313, 246.884619)"><g><path d="M 6.65625 0 L 6.65625 -55.375 L 23.15625 -55.375 L 23.15625 0 Z M 5.984375 -81.171875 L 23.578125 -81.171875 L 23.578125 -65.65625 L 5.984375 -65.65625 Z M 5.984375 -81.171875 "/></g></g></g><g fill="rgb(100%, 100%, 100%)" fill-opacity="1"><g transform="translate(625.889684, 246.884619)"><g><path d="M 65.09375 0 L 44.890625 0 L 23.15625 -24.796875 L 23.15625 0 L 6.65625 0 L 6.65625 -80.390625 L 23.15625 -80.390625 L 23.15625 -31.5625 L 43.90625 -55.265625 L 63.671875 -55.265625 L 40.1875 -28.71875 Z M 65.09375 0 "/></g></g></g><g fill="rgb(100%, 100%, 100%)" fill-opacity="1"><g transform="translate(688.46462, 246.884619)"><g><path d="M 59.53125 -55.375 L 59.53125 0 L 43.46875 0 L 43.46875 -8.078125 C 41.71875 -5.171875 39.421875 -2.953125 36.578125 -1.421875 C 33.742188 0.109375 30.546875 0.875 26.984375 0.875 C 20.054688 0.875 14.878906 -1.050781 11.453125 -4.90625 C 8.035156 -8.769531 6.328125 -14.597656 6.328125 -22.390625 L 6.328125 -55.375 L 22.828125 -55.375 L 22.828125 -22.0625 C 22.828125 -15.363281 25.703125 -12.015625 31.453125 -12.015625 C 34.878906 -12.015625 37.644531 -13.175781 39.75 -15.5 C 41.863281 -17.832031 42.921875 -20.894531 42.921875 -24.6875 L 42.921875 -55.375 Z M 59.53125 -55.375 "/></g></g></g><g clip-path="url(#id2)"><path fill="rgb(100%, 100%, 100%)" d="M 112.898438 181.875 C 85.769531 156.640625 49.582031 141.121094 9.667969 141.121094 L 9.667969 267.582031 C 49.582031 267.582031 85.769531 283.101562 112.898438 308.335938 C 140.023438 283.101562 176.210938 267.582031 216.125 267.582031 L 216.125 141.121094 C 176.210938 141.121094 140.023438 156.640625 112.898438 181.875 Z M 112.898438 141.121094 C 131.878906 141.121094 147.304688 125.660156 147.304688 106.632812 C 147.304688 87.605469 131.878906 72.144531 112.898438 72.144531 C 93.914062 72.144531 78.488281 87.605469 78.488281 106.632812 C 78.488281 125.660156 93.914062 141.121094 112.898438 141.121094 Z M 112.898438 141.121094 " fill-opacity="1" fill-rule="nonzero"/></g></svg>