<svg xmlns="http://www.w3.org/2000/svg" xmlns:xlink="http://www.w3.org/1999/xlink" width="500" zoomAndPan="magnify" viewBox="0 0 375 374.999991" height="500" preserveAspectRatio="xMidYMid meet" version="1.0"><defs><g/><clipPath id="id1"><path d="M 0 131.558594 L 115.039062 131.558594 L 115.039062 260.816406 L 0 260.816406 Z M 0 131.558594 " clip-rule="nonzero"/></clipPath><clipPath id="id2"><path d="M 8.1875 122.972656 L 128.9375 122.972656 L 128.9375 260.222656 L 8.1875 260.222656 Z M 8.1875 122.972656 " clip-rule="nonzero"/></clipPath></defs><g clip-path="url(#id1)"><path fill="rgb(99.21875%, 95.289612%, 90.19928%)" d="M 192.824219 356.21875 L -46.277344 356.21875 C -49.148438 356.21875 -51.476562 353.882812 -51.476562 351.023438 L -51.476562 111.917969 C -51.476562 109.058594 -49.148438 106.722656 -46.277344 106.722656 L 192.824219 106.722656 C 195.683594 106.722656 198.023438 109.058594 198.023438 111.917969 L 198.023438 351.023438 C 198.023438 353.882812 195.683594 356.21875 192.824219 356.21875 Z M -41.082031 345.824219 L 187.625 345.824219 L 187.625 117.117188 L -41.082031 117.117188 Z M -41.082031 345.824219 " fill-opacity="1" fill-rule="nonzero"/></g><g fill="rgb(100%, 100%, 100%)" fill-opacity="1"><g transform="translate(147.939355, 175.445563)"><g><path d="M 18.515625 0.40625 C 15.222656 0.40625 12.347656 -0.285156 9.890625 -1.671875 C 7.441406 -3.054688 5.5625 -5.003906 4.25 -7.515625 C 2.9375 -10.023438 2.28125 -12.957031 2.28125 -16.3125 C 2.28125 -19.632812 2.9375 -22.550781 4.25 -25.0625 C 5.5625 -27.582031 7.441406 -29.523438 9.890625 -30.890625 C 12.347656 -32.265625 15.222656 -32.953125 18.515625 -32.953125 C 20.671875 -32.953125 22.734375 -32.625 24.703125 -31.96875 C 26.671875 -31.3125 28.28125 -30.390625 29.53125 -29.203125 L 27.28125 -24.078125 C 25.820312 -25.179688 24.398438 -25.984375 23.015625 -26.484375 C 21.628906 -26.984375 20.171875 -27.234375 18.640625 -27.234375 C 15.722656 -27.234375 13.484375 -26.300781 11.921875 -24.4375 C 10.367188 -22.582031 9.59375 -19.875 9.59375 -16.3125 C 9.59375 -12.71875 10.367188 -9.984375 11.921875 -8.109375 C 13.484375 -6.234375 15.722656 -5.296875 18.640625 -5.296875 C 20.171875 -5.296875 21.628906 -5.546875 23.015625 -6.046875 C 24.398438 -6.554688 25.820312 -7.359375 27.28125 -8.453125 L 29.53125 -3.34375 C 28.28125 -2.144531 26.671875 -1.21875 24.703125 -0.5625 C 22.734375 0.0820312 20.671875 0.40625 18.515625 0.40625 Z M 18.515625 0.40625 "/></g></g></g><g fill="rgb(100%, 100%, 100%)" fill-opacity="1"><g transform="translate(179.236993, 175.445563)"><g><path d="M 13.84375 0.359375 C 11.375 0.359375 9.21875 -0.125 7.375 -1.09375 C 5.53125 -2.070312 4.113281 -3.472656 3.125 -5.296875 C 2.132812 -7.128906 1.640625 -9.265625 1.640625 -11.703125 C 1.640625 -14.140625 2.132812 -16.269531 3.125 -18.09375 C 4.113281 -19.925781 5.53125 -21.328125 7.375 -22.296875 C 9.21875 -23.273438 11.375 -23.765625 13.84375 -23.765625 C 16.28125 -23.765625 18.410156 -23.273438 20.234375 -22.296875 C 22.066406 -21.328125 23.476562 -19.925781 24.46875 -18.09375 C 25.457031 -16.269531 25.953125 -14.140625 25.953125 -11.703125 C 25.953125 -9.265625 25.457031 -7.128906 24.46875 -5.296875 C 23.476562 -3.472656 22.066406 -2.070312 20.234375 -1.09375 C 18.410156 -0.125 16.28125 0.359375 13.84375 0.359375 Z M 13.84375 -4.890625 C 15.550781 -4.890625 16.851562 -5.453125 17.75 -6.578125 C 18.65625 -7.703125 19.109375 -9.410156 19.109375 -11.703125 C 19.109375 -13.953125 18.65625 -15.648438 17.75 -16.796875 C 16.851562 -17.941406 15.550781 -18.515625 13.84375 -18.515625 C 12.113281 -18.515625 10.789062 -17.941406 9.875 -16.796875 C 8.957031 -15.648438 8.5 -13.953125 8.5 -11.703125 C 8.5 -7.160156 10.28125 -4.890625 13.84375 -4.890625 Z M 13.84375 -4.890625 "/></g></g></g><g fill="rgb(100%, 100%, 100%)" fill-opacity="1"><g transform="translate(206.833735, 175.445563)"><g><path d="M 24.90625 -23.171875 L 24.90625 0 L 18.1875 0 L 18.1875 -3.375 C 17.457031 -2.15625 16.5 -1.226562 15.3125 -0.59375 C 14.125 0.0390625 12.78125 0.359375 11.28125 0.359375 C 8.394531 0.359375 6.234375 -0.445312 4.796875 -2.0625 C 3.367188 -3.675781 2.65625 -6.113281 2.65625 -9.375 L 2.65625 -23.171875 L 9.546875 -23.171875 L 9.546875 -9.234375 C 9.546875 -6.429688 10.75 -5.03125 13.15625 -5.03125 C 14.59375 -5.03125 15.753906 -5.515625 16.640625 -6.484375 C 17.523438 -7.460938 17.96875 -8.742188 17.96875 -10.328125 L 17.96875 -23.171875 Z M 24.90625 -23.171875 "/></g></g></g><g fill="rgb(100%, 100%, 100%)" fill-opacity="1"><g transform="translate(234.521864, 175.445563)"><g><path d="M 16.265625 -23.71875 C 17.242188 -23.71875 18.066406 -23.566406 18.734375 -23.265625 L 18.6875 -16.953125 C 17.5625 -17.472656 16.4375 -17.734375 15.3125 -17.734375 C 13.476562 -17.734375 12.082031 -17.238281 11.125 -16.25 C 10.164062 -15.257812 9.6875 -13.878906 9.6875 -12.109375 L 9.6875 0 L 2.78125 0 L 2.78125 -16.546875 C 2.78125 -19.015625 2.660156 -21.222656 2.421875 -23.171875 L 8.90625 -23.171875 L 9.375 -19.203125 C 9.945312 -20.660156 10.847656 -21.773438 12.078125 -22.546875 C 13.316406 -23.328125 14.710938 -23.71875 16.265625 -23.71875 Z M 16.265625 -23.71875 "/></g></g></g><g fill="rgb(100%, 100%, 100%)" fill-opacity="1"><g transform="translate(253.254761, 175.445563)"><g><path d="M 11.65625 0.359375 C 7.269531 0.359375 3.8125 -0.582031 1.28125 -2.46875 L 3.109375 -7.265625 C 4.328125 -6.378906 5.679688 -5.703125 7.171875 -5.234375 C 8.671875 -4.765625 10.195312 -4.53125 11.75 -4.53125 C 12.9375 -4.53125 13.847656 -4.710938 14.484375 -5.078125 C 15.128906 -5.441406 15.453125 -5.972656 15.453125 -6.671875 C 15.453125 -7.253906 15.222656 -7.710938 14.765625 -8.046875 C 14.304688 -8.378906 13.5 -8.664062 12.34375 -8.90625 L 8.546875 -9.78125 C 6.316406 -10.269531 4.675781 -11.046875 3.625 -12.109375 C 2.582031 -13.179688 2.0625 -14.597656 2.0625 -16.359375 C 2.0625 -17.796875 2.476562 -19.078125 3.3125 -20.203125 C 4.15625 -21.328125 5.320312 -22.203125 6.8125 -22.828125 C 8.300781 -23.453125 10.019531 -23.765625 11.96875 -23.765625 C 13.613281 -23.765625 15.226562 -23.507812 16.8125 -23 C 18.40625 -22.5 19.820312 -21.796875 21.0625 -20.890625 L 19.15625 -16.265625 C 17.96875 -17.085938 16.753906 -17.710938 15.515625 -18.140625 C 14.285156 -18.566406 13.085938 -18.78125 11.921875 -18.78125 C 10.796875 -18.78125 9.910156 -18.582031 9.265625 -18.1875 C 8.628906 -17.789062 8.3125 -17.242188 8.3125 -16.546875 C 8.3125 -16.023438 8.5 -15.601562 8.875 -15.28125 C 9.257812 -14.96875 9.941406 -14.703125 10.921875 -14.484375 L 14.8125 -13.625 C 17.1875 -13.070312 18.90625 -12.242188 19.96875 -11.140625 C 21.039062 -10.046875 21.578125 -8.585938 21.578125 -6.765625 C 21.578125 -4.566406 20.691406 -2.828125 18.921875 -1.546875 C 17.148438 -0.273438 14.726562 0.359375 11.65625 0.359375 Z M 11.65625 0.359375 "/></g></g></g><g fill="rgb(100%, 100%, 100%)" fill-opacity="1"><g transform="translate(276.236824, 175.445563)"><g><path d="M 23.578125 -11.015625 L 8.3125 -11.015625 C 8.4375 -8.847656 9 -7.269531 10 -6.28125 C 11.007812 -5.289062 12.503906 -4.796875 14.484375 -4.796875 C 15.671875 -4.796875 16.859375 -4.992188 18.046875 -5.390625 C 19.234375 -5.785156 20.332031 -6.363281 21.34375 -7.125 L 23.171875 -2.46875 C 22.078125 -1.582031 20.710938 -0.890625 19.078125 -0.390625 C 17.453125 0.109375 15.816406 0.359375 14.171875 0.359375 C 10.265625 0.359375 7.195312 -0.710938 4.96875 -2.859375 C 2.75 -5.003906 1.640625 -7.9375 1.640625 -11.65625 C 1.640625 -14 2.117188 -16.09375 3.078125 -17.9375 C 4.046875 -19.78125 5.394531 -21.210938 7.125 -22.234375 C 8.863281 -23.253906 10.832031 -23.765625 13.03125 -23.765625 C 16.289062 -23.765625 18.863281 -22.703125 20.75 -20.578125 C 22.632812 -18.460938 23.578125 -15.609375 23.578125 -12.015625 Z M 13.203125 -18.921875 C 11.898438 -18.921875 10.84375 -18.539062 10.03125 -17.78125 C 9.226562 -17.019531 8.703125 -15.90625 8.453125 -14.4375 L 17.640625 -14.4375 C 17.273438 -17.425781 15.796875 -18.921875 13.203125 -18.921875 Z M 13.203125 -18.921875 "/></g></g></g><g fill="rgb(100%, 100%, 100%)" fill-opacity="1"><g transform="translate(301.364788, 175.445563)"><g><path d="M 2.78125 0 L 2.78125 -23.171875 L 9.6875 -23.171875 L 9.6875 0 Z M 2.53125 -34.546875 L 9.890625 -34.546875 L 9.890625 -28.0625 L 2.53125 -28.0625 Z M 2.53125 -34.546875 "/></g></g></g><g fill="rgb(100%, 100%, 100%)" fill-opacity="1"><g transform="translate(313.883835, 175.445563)"><g><path d="M 27.234375 0 L 18.78125 0 L 9.6875 -10.375 L 9.6875 0 L 2.78125 0 L 2.78125 -33.640625 L 9.6875 -33.640625 L 9.6875 -13.203125 L 18.375 -23.125 L 26.640625 -23.125 L 16.8125 -12.015625 Z M 27.234375 0 "/></g></g></g><g fill="rgb(100%, 100%, 100%)" fill-opacity="1"><g transform="translate(340.064201, 175.445563)"><g><path d="M 24.90625 -23.171875 L 24.90625 0 L 18.1875 0 L 18.1875 -3.375 C 17.457031 -2.15625 16.5 -1.226562 15.3125 -0.59375 C 14.125 0.0390625 12.78125 0.359375 11.28125 0.359375 C 8.394531 0.359375 6.234375 -0.445312 4.796875 -2.0625 C 3.367188 -3.675781 2.65625 -6.113281 2.65625 -9.375 L 2.65625 -23.171875 L 9.546875 -23.171875 L 9.546875 -9.234375 C 9.546875 -6.429688 10.75 -5.03125 13.15625 -5.03125 C 14.59375 -5.03125 15.753906 -5.515625 16.640625 -6.484375 C 17.523438 -7.460938 17.96875 -8.742188 17.96875 -10.328125 L 17.96875 -23.171875 Z M 24.90625 -23.171875 "/></g></g></g><g fill="rgb(100%, 100%, 100%)" fill-opacity="1"><g transform="translate(147.939355, 219.162135)"><g><path d="M 18.1875 0.40625 C 14.957031 0.40625 12.144531 -0.269531 9.75 -1.625 C 7.363281 -2.976562 5.519531 -4.921875 4.21875 -7.453125 C 2.925781 -9.984375 2.28125 -12.9375 2.28125 -16.3125 C 2.28125 -19.695312 2.925781 -22.640625 4.21875 -25.140625 C 5.519531 -27.640625 7.363281 -29.566406 9.75 -30.921875 C 12.144531 -32.273438 14.957031 -32.953125 18.1875 -32.953125 C 21.414062 -32.953125 24.21875 -32.273438 26.59375 -30.921875 C 28.976562 -29.566406 30.804688 -27.640625 32.078125 -25.140625 C 33.359375 -22.640625 34 -19.695312 34 -16.3125 C 34 -12.9375 33.359375 -9.984375 32.078125 -7.453125 C 30.804688 -4.921875 28.976562 -2.976562 26.59375 -1.625 C 24.21875 -0.269531 21.414062 0.40625 18.1875 0.40625 Z M 18.1875 -5.171875 C 20.925781 -5.171875 23.066406 -6.128906 24.609375 -8.046875 C 26.148438 -9.960938 26.921875 -12.71875 26.921875 -16.3125 C 26.921875 -19.90625 26.148438 -22.644531 24.609375 -24.53125 C 23.066406 -26.425781 20.925781 -27.375 18.1875 -27.375 C 15.445312 -27.375 13.304688 -26.425781 11.765625 -24.53125 C 10.222656 -22.644531 9.453125 -19.90625 9.453125 -16.3125 C 9.453125 -12.6875 10.222656 -9.921875 11.765625 -8.015625 C 13.304688 -6.117188 15.445312 -5.171875 18.1875 -5.171875 Z M 18.1875 -5.171875 "/></g></g></g><g fill="rgb(100%, 100%, 100%)" fill-opacity="1"><g transform="translate(184.262898, 219.162135)"><g><path d="M 17.09375 -23.765625 C 22.570312 -23.765625 25.3125 -20.519531 25.3125 -14.03125 L 25.3125 0 L 18.421875 0 L 18.421875 -13.71875 C 18.421875 -15.332031 18.125 -16.507812 17.53125 -17.25 C 16.9375 -18 16 -18.375 14.71875 -18.375 C 13.195312 -18.375 11.976562 -17.882812 11.0625 -16.90625 C 10.144531 -15.9375 9.6875 -14.628906 9.6875 -12.984375 L 9.6875 0 L 2.78125 0 L 2.78125 -16.546875 C 2.78125 -19.015625 2.660156 -21.222656 2.421875 -23.171875 L 8.90625 -23.171875 L 9.375 -19.515625 C 10.195312 -20.890625 11.269531 -21.941406 12.59375 -22.671875 C 13.914062 -23.398438 15.414062 -23.765625 17.09375 -23.765625 Z M 17.09375 -23.765625 "/></g></g></g><g fill="rgb(100%, 100%, 100%)" fill-opacity="1"><g transform="translate(212.270846, 219.162135)"><g><path d="M 2.78125 0 L 2.78125 -33.640625 L 9.6875 -33.640625 L 9.6875 0 Z M 2.78125 0 "/></g></g></g><g fill="rgb(100%, 100%, 100%)" fill-opacity="1"><g transform="translate(224.789894, 219.162135)"><g><path d="M 2.78125 0 L 2.78125 -23.171875 L 9.6875 -23.171875 L 9.6875 0 Z M 2.53125 -34.546875 L 9.890625 -34.546875 L 9.890625 -28.0625 L 2.53125 -28.0625 Z M 2.53125 -34.546875 "/></g></g></g><g fill="rgb(100%, 100%, 100%)" fill-opacity="1"><g transform="translate(237.308942, 219.162135)"><g><path d="M 17.09375 -23.765625 C 22.570312 -23.765625 25.3125 -20.519531 25.3125 -14.03125 L 25.3125 0 L 18.421875 0 L 18.421875 -13.71875 C 18.421875 -15.332031 18.125 -16.507812 17.53125 -17.25 C 16.9375 -18 16 -18.375 14.71875 -18.375 C 13.195312 -18.375 11.976562 -17.882812 11.0625 -16.90625 C 10.144531 -15.9375 9.6875 -14.628906 9.6875 -12.984375 L 9.6875 0 L 2.78125 0 L 2.78125 -16.546875 C 2.78125 -19.015625 2.660156 -21.222656 2.421875 -23.171875 L 8.90625 -23.171875 L 9.375 -19.515625 C 10.195312 -20.890625 11.269531 -21.941406 12.59375 -22.671875 C 13.914062 -23.398438 15.414062 -23.765625 17.09375 -23.765625 Z M 17.09375 -23.765625 "/></g></g></g><g fill="rgb(100%, 100%, 100%)" fill-opacity="1"><g transform="translate(265.31689, 219.162135)"><g><path d="M 23.578125 -11.015625 L 8.3125 -11.015625 C 8.4375 -8.847656 9 -7.269531 10 -6.28125 C 11.007812 -5.289062 12.503906 -4.796875 14.484375 -4.796875 C 15.671875 -4.796875 16.859375 -4.992188 18.046875 -5.390625 C 19.234375 -5.785156 20.332031 -6.363281 21.34375 -7.125 L 23.171875 -2.46875 C 22.078125 -1.582031 20.710938 -0.890625 19.078125 -0.390625 C 17.453125 0.109375 15.816406 0.359375 14.171875 0.359375 C 10.265625 0.359375 7.195312 -0.710938 4.96875 -2.859375 C 2.75 -5.003906 1.640625 -7.9375 1.640625 -11.65625 C 1.640625 -14 2.117188 -16.09375 3.078125 -17.9375 C 4.046875 -19.78125 5.394531 -21.210938 7.125 -22.234375 C 8.863281 -23.253906 10.832031 -23.765625 13.03125 -23.765625 C 16.289062 -23.765625 18.863281 -22.703125 20.75 -20.578125 C 22.632812 -18.460938 23.578125 -15.609375 23.578125 -12.015625 Z M 13.203125 -18.921875 C 11.898438 -18.921875 10.84375 -18.539062 10.03125 -17.78125 C 9.226562 -17.019531 8.703125 -15.90625 8.453125 -14.4375 L 17.640625 -14.4375 C 17.273438 -17.425781 15.796875 -18.921875 13.203125 -18.921875 Z M 13.203125 -18.921875 "/></g></g></g><g clip-path="url(#id2)"><path fill="rgb(100%, 100%, 100%)" d="M 68.5625 186.722656 C 52.738281 172.0625 31.628906 163.042969 8.339844 163.042969 L 8.339844 236.511719 C 31.628906 236.511719 52.738281 245.527344 68.5625 260.1875 C 84.386719 245.527344 105.496094 236.511719 128.78125 236.511719 L 128.78125 163.042969 C 105.496094 163.042969 84.386719 172.0625 68.5625 186.722656 Z M 68.5625 163.042969 C 79.636719 163.042969 88.636719 154.0625 88.636719 143.007812 C 88.636719 131.953125 79.636719 122.972656 68.5625 122.972656 C 57.488281 122.972656 48.488281 131.953125 48.488281 143.007812 C 48.488281 154.0625 57.488281 163.042969 68.5625 163.042969 Z M 68.5625 163.042969 " fill-opacity="1" fill-rule="nonzero"/></g></svg>