<svg xmlns="http://www.w3.org/2000/svg" xmlns:xlink="http://www.w3.org/1999/xlink" width="1000" zoomAndPan="magnify" viewBox="0 0 750 374.999991" height="500" preserveAspectRatio="xMidYMid meet" version="1.0"><defs><g/><clipPath id="id1"><path d="M 73 51.796875 L 206 51.796875 L 206 303 L 73 303 Z M 73 51.796875 " clip-rule="nonzero"/></clipPath><clipPath id="id2"><path d="M 7 106 L 193 106 L 193 305.296875 L 7 305.296875 Z M 7 106 " clip-rule="nonzero"/></clipPath><clipPath id="id3"><path d="M 112 65 L 344.4375 65 L 344.4375 225 L 112 225 Z M 112 65 " clip-rule="nonzero"/></clipPath></defs><g clip-path="url(#id1)"><path fill="rgb(100%, 100%, 100%)" d="M 205.59375 223.640625 L 205.59375 302.753906 C 170.410156 207.359375 73.550781 204.832031 73.550781 204.832031 L 73.550781 51.796875 C 119.53125 57.570312 148.039062 75.3125 169.070312 93.417969 L 90.050781 135.140625 L 169.253906 147.375 C 165.792969 163.257812 168.015625 179.726562 175.679688 194.21875 C 182.4375 207.089844 192.863281 217.25 205.59375 223.640625 Z M 205.59375 223.640625 " fill-opacity="1" fill-rule="nonzero"/></g><path fill="rgb(100%, 100%, 100%)" d="M 197.949219 302.234375 C 197.949219 302.234375 167.867188 227.257812 61.808594 216.546875 C 61.808594 157.886719 61.808594 74.238281 61.808594 74.238281 L 40.894531 74.238281 L 40.894531 228.277344 C 40.894531 228.277344 133.683594 224.714844 197.949219 302.234375 Z M 197.949219 302.234375 " fill-opacity="1" fill-rule="nonzero"/><g clip-path="url(#id2)"><path fill="rgb(100%, 100%, 100%)" d="M 28.144531 106.371094 L 28.144531 248.175781 C 28.144531 248.175781 143.890625 237.96875 192.34375 305.296875 C 192.34375 305.296875 155.117188 262.453125 7.246094 259.910156 C 7.246094 218.585938 7.246094 106.390625 7.246094 106.390625 Z M 28.144531 106.371094 " fill-opacity="1" fill-rule="nonzero"/></g><g clip-path="url(#id3)"><path fill="rgb(100%, 100%, 100%)" d="M 317.257812 95.894531 L 287.375 111.695312 C 292.964844 116.664062 297.816406 122.65625 301.53125 129.6875 C 318.144531 161.183594 306.066406 200.179688 274.628906 216.761719 C 243.140625 233.382812 204.15625 221.332031 187.574219 189.851562 C 179.359375 174.304688 178.1875 156.964844 182.824219 141.367188 L 112.386719 130.488281 L 236.328125 65.070312 L 344.144531 81.722656 L 321.707031 93.554688 Z M 317.257812 95.894531 " fill-opacity="1" fill-rule="nonzero"/></g><g fill="rgb(100%, 100%, 100%)" fill-opacity="1"><g transform="translate(229.114609, 310.391518)"><g><path d="M 33.46875 0.75 C 27.519531 0.75 22.328125 -0.503906 17.890625 -3.015625 C 13.453125 -5.523438 10.046875 -9.050781 7.671875 -13.59375 C 5.304688 -18.144531 4.125 -23.453125 4.125 -29.515625 C 4.125 -35.515625 5.304688 -40.785156 7.671875 -45.328125 C 10.046875 -49.878906 13.453125 -53.394531 17.890625 -55.875 C 22.328125 -58.351562 27.519531 -59.59375 33.46875 -59.59375 C 37.382812 -59.59375 41.117188 -59 44.671875 -57.8125 C 48.222656 -56.632812 51.128906 -54.96875 53.390625 -52.8125 L 49.34375 -43.5625 C 46.695312 -45.539062 44.117188 -46.984375 41.609375 -47.890625 C 39.109375 -48.804688 36.476562 -49.265625 33.71875 -49.265625 C 28.425781 -49.265625 24.375 -47.582031 21.5625 -44.21875 C 18.757812 -40.851562 17.359375 -35.953125 17.359375 -29.515625 C 17.359375 -23.003906 18.757812 -18.054688 21.5625 -14.671875 C 24.375 -11.285156 28.425781 -9.59375 33.71875 -9.59375 C 36.476562 -9.59375 39.109375 -10.046875 41.609375 -10.953125 C 44.117188 -11.859375 46.695312 -13.304688 49.34375 -15.296875 L 53.390625 -6.03125 C 51.128906 -3.882812 48.222656 -2.21875 44.671875 -1.03125 C 41.117188 0.15625 37.382812 0.75 33.46875 0.75 Z M 33.46875 0.75 "/></g></g></g><g fill="rgb(100%, 100%, 100%)" fill-opacity="1"><g transform="translate(289.867849, 310.391518)"><g><path d="M 32.890625 0.75 C 27.054688 0.75 21.972656 -0.472656 17.640625 -2.921875 C 13.316406 -5.378906 9.984375 -8.894531 7.640625 -13.46875 C 5.296875 -18.039062 4.125 -23.390625 4.125 -29.515625 C 4.125 -35.628906 5.296875 -40.941406 7.640625 -45.453125 C 9.984375 -49.972656 13.316406 -53.457031 17.640625 -55.90625 C 21.972656 -58.363281 27.054688 -59.59375 32.890625 -59.59375 C 38.734375 -59.59375 43.800781 -58.363281 48.09375 -55.90625 C 52.394531 -53.457031 55.703125 -49.972656 58.015625 -45.453125 C 60.335938 -40.941406 61.5 -35.628906 61.5 -29.515625 C 61.5 -23.390625 60.335938 -18.039062 58.015625 -13.46875 C 55.703125 -8.894531 52.394531 -5.378906 48.09375 -2.921875 C 43.800781 -0.472656 38.734375 0.75 32.890625 0.75 Z M 32.890625 -9.34375 C 37.859375 -9.34375 41.734375 -11.078125 44.515625 -14.546875 C 47.296875 -18.015625 48.6875 -23.003906 48.6875 -29.515625 C 48.6875 -36.015625 47.296875 -40.972656 44.515625 -44.390625 C 41.734375 -47.804688 37.859375 -49.515625 32.890625 -49.515625 C 27.929688 -49.515625 24.0625 -47.804688 21.28125 -44.390625 C 18.5 -40.972656 17.109375 -36.015625 17.109375 -29.515625 C 17.109375 -22.953125 18.5 -17.945312 21.28125 -14.5 C 24.0625 -11.0625 27.929688 -9.34375 32.890625 -9.34375 Z M 32.890625 -9.34375 "/></g></g></g><g fill="rgb(100%, 100%, 100%)" fill-opacity="1"><g transform="translate(359.713315, 310.391518)"><g><path d="M 30.828125 0.75 C 22.566406 0.75 16.285156 -1.367188 11.984375 -5.609375 C 7.679688 -9.859375 5.53125 -16.085938 5.53125 -24.296875 L 5.53125 -58.84375 L 18.1875 -58.84375 L 18.1875 -23.71875 C 18.1875 -19.039062 19.273438 -15.472656 21.453125 -13.015625 C 23.628906 -10.566406 26.753906 -9.34375 30.828125 -9.34375 C 34.910156 -9.34375 38.023438 -10.566406 40.171875 -13.015625 C 42.316406 -15.472656 43.390625 -19.039062 43.390625 -23.71875 L 43.390625 -58.84375 L 56.125 -58.84375 L 56.125 -24.296875 C 56.125 -16.140625 53.957031 -9.925781 49.625 -5.65625 C 45.300781 -1.382812 39.035156 0.75 30.828125 0.75 Z M 30.828125 0.75 "/></g></g></g><g fill="rgb(100%, 100%, 100%)" fill-opacity="1"><g transform="translate(425.508603, 310.391518)"><g><path d="M 55.546875 0 L 41.90625 0 L 34.390625 -19.59375 C 33.773438 -21.132812 32.847656 -22.207031 31.609375 -22.8125 C 30.367188 -23.414062 28.816406 -23.71875 26.953125 -23.71875 L 18.59375 -23.71875 L 18.59375 0 L 5.875 0 L 5.875 -58.84375 L 32.078125 -58.84375 C 38.898438 -58.84375 44.078125 -57.351562 47.609375 -54.375 C 51.140625 -51.40625 52.90625 -47.140625 52.90625 -41.578125 C 52.90625 -37.660156 51.867188 -34.296875 49.796875 -31.484375 C 47.734375 -28.679688 44.773438 -26.671875 40.921875 -25.453125 C 44.390625 -24.742188 46.894531 -22.347656 48.4375 -18.265625 Z M 30.171875 -33.5625 C 33.859375 -33.5625 36.554688 -34.179688 38.265625 -35.421875 C 39.972656 -36.660156 40.828125 -38.601562 40.828125 -41.25 C 40.828125 -43.894531 39.972656 -45.835938 38.265625 -47.078125 C 36.554688 -48.316406 33.859375 -48.9375 30.171875 -48.9375 L 18.4375 -48.9375 L 18.4375 -33.5625 Z M 30.171875 -33.5625 "/></g></g></g><g fill="rgb(100%, 100%, 100%)" fill-opacity="1"><g transform="translate(488.162928, 310.391518)"><g><path d="M 26.453125 0.75 C 21.984375 0.75 17.695312 0.15625 13.59375 -1.03125 C 9.488281 -2.21875 6.085938 -3.882812 3.390625 -6.03125 L 7.515625 -15.296875 C 13.191406 -11.328125 19.53125 -9.34375 26.53125 -9.34375 C 30.28125 -9.34375 33.160156 -9.929688 35.171875 -11.109375 C 37.179688 -12.296875 38.1875 -13.96875 38.1875 -16.125 C 38.1875 -17.988281 37.265625 -19.457031 35.421875 -20.53125 C 33.578125 -21.613281 30.335938 -22.648438 25.703125 -23.640625 C 20.523438 -24.679688 16.40625 -25.957031 13.34375 -27.46875 C 10.289062 -28.988281 8.0625 -30.835938 6.65625 -33.015625 C 5.25 -35.191406 4.546875 -37.90625 4.546875 -41.15625 C 4.546875 -44.6875 5.523438 -47.859375 7.484375 -50.671875 C 9.441406 -53.484375 12.179688 -55.671875 15.703125 -57.234375 C 19.234375 -58.804688 23.3125 -59.59375 27.9375 -59.59375 C 32.125 -59.59375 36.144531 -58.984375 40 -57.765625 C 43.863281 -56.554688 46.953125 -54.90625 49.265625 -52.8125 L 45.125 -43.5625 C 39.945312 -47.53125 34.242188 -49.515625 28.015625 -49.515625 C 24.710938 -49.515625 22.066406 -48.851562 20.078125 -47.53125 C 18.097656 -46.207031 17.109375 -44.414062 17.109375 -42.15625 C 17.109375 -40.832031 17.476562 -39.726562 18.21875 -38.84375 C 18.96875 -37.96875 20.222656 -37.179688 21.984375 -36.484375 C 23.742188 -35.796875 26.253906 -35.125 29.515625 -34.46875 C 37.054688 -32.8125 42.492188 -30.660156 45.828125 -28.015625 C 49.160156 -25.367188 50.828125 -21.757812 50.828125 -17.1875 C 50.828125 -11.675781 48.675781 -7.304688 44.375 -4.078125 C 40.082031 -0.859375 34.109375 0.75 26.453125 0.75 Z M 26.453125 0.75 "/></g></g></g><g fill="rgb(100%, 100%, 100%)" fill-opacity="1"><g transform="translate(546.601783, 310.391518)"><g><path d="M 5.875 0 L 5.875 -58.84375 L 46.453125 -58.84375 L 46.453125 -48.84375 L 18.4375 -48.84375 L 18.4375 -34.96875 L 44.71875 -34.96875 L 44.71875 -24.875 L 18.4375 -24.875 L 18.4375 -10 L 46.453125 -10 L 46.453125 0 Z M 5.875 0 "/></g></g></g><g fill="rgb(100%, 100%, 100%)" fill-opacity="1"><g transform="translate(600.246547, 310.391518)"><g><path d="M 5.875 0 L 5.875 -58.84375 L 18.765625 -58.84375 L 18.765625 0 Z M 5.875 0 "/></g></g></g><g fill="rgb(100%, 100%, 100%)" fill-opacity="1"><g transform="translate(629.094364, 310.391518)"><g><path d="M 59.921875 0 L 44.390625 0 L 18.765625 -27.1875 L 18.765625 0 L 5.875 0 L 5.875 -58.84375 L 18.765625 -58.84375 L 18.765625 -32.984375 L 43.484375 -58.84375 L 58.84375 -58.84375 L 31.484375 -30.75 Z M 59.921875 0 "/></g></g></g><g fill="rgb(100%, 100%, 100%)" fill-opacity="1"><g transform="translate(689.847597, 310.391518)"><g><path d="M 30.828125 0.75 C 22.566406 0.75 16.285156 -1.367188 11.984375 -5.609375 C 7.679688 -9.859375 5.53125 -16.085938 5.53125 -24.296875 L 5.53125 -58.84375 L 18.1875 -58.84375 L 18.1875 -23.71875 C 18.1875 -19.039062 19.273438 -15.472656 21.453125 -13.015625 C 23.628906 -10.566406 26.753906 -9.34375 30.828125 -9.34375 C 34.910156 -9.34375 38.023438 -10.566406 40.171875 -13.015625 C 42.316406 -15.472656 43.390625 -19.039062 43.390625 -23.71875 L 43.390625 -58.84375 L 56.125 -58.84375 L 56.125 -24.296875 C 56.125 -16.140625 53.957031 -9.925781 49.625 -5.65625 C 45.300781 -1.382812 39.035156 0.75 30.828125 0.75 Z M 30.828125 0.75 "/></g></g></g></svg>