<svg xmlns="http://www.w3.org/2000/svg" xmlns:xlink="http://www.w3.org/1999/xlink" width="1000" zoomAndPan="magnify" viewBox="0 0 750 374.999991" height="500" preserveAspectRatio="xMidYMid meet" version="1.0"><defs><g/><clipPath id="id1"><path d="M 0 48.542969 L 210.210938 48.542969 L 210.210938 319.417969 L 0 319.417969 Z M 0 48.542969 " clip-rule="nonzero"/></clipPath><clipPath id="id2"><path d="M 9.4375 30.546875 L 262 30.546875 L 262 318.546875 L 9.4375 318.546875 Z M 9.4375 30.546875 " clip-rule="nonzero"/></clipPath></defs><g clip-path="url(#id1)"><path fill="rgb(99.21875%, 95.289612%, 90.19928%)" d="M 373.21875 519.34375 L -127.84375 519.34375 C -133.855469 519.34375 -138.738281 514.441406 -138.738281 508.449219 L -138.738281 7.386719 C -138.738281 1.394531 -133.855469 -3.507812 -127.84375 -3.507812 L 373.21875 -3.507812 C 379.210938 -3.507812 384.113281 1.394531 384.113281 7.386719 L 384.113281 508.449219 C 384.113281 514.441406 379.210938 519.34375 373.21875 519.34375 Z M -116.953125 497.558594 L 362.328125 497.558594 L 362.328125 18.277344 L -116.953125 18.277344 Z M -116.953125 497.558594 " fill-opacity="1" fill-rule="nonzero"/></g><g fill="rgb(100%, 100%, 100%)" fill-opacity="1"><g transform="translate(279.158779, 232.12457)"><g><path d="M 38.78125 0.859375 C 31.882812 0.859375 25.867188 -0.59375 20.734375 -3.5 C 15.597656 -6.40625 11.65625 -10.488281 8.90625 -15.75 C 6.15625 -21.019531 4.78125 -27.164062 4.78125 -34.1875 C 4.78125 -41.144531 6.15625 -47.253906 8.90625 -52.515625 C 11.65625 -57.785156 15.597656 -61.859375 20.734375 -64.734375 C 25.867188 -67.609375 31.882812 -69.046875 38.78125 -69.046875 C 43.3125 -69.046875 47.632812 -68.359375 51.75 -66.984375 C 55.875 -65.609375 59.242188 -63.675781 61.859375 -61.1875 L 57.171875 -50.46875 C 54.109375 -52.769531 51.125 -54.445312 48.21875 -55.5 C 45.3125 -56.550781 42.265625 -57.078125 39.078125 -57.078125 C 32.941406 -57.078125 28.242188 -55.128906 24.984375 -51.234375 C 21.734375 -47.335938 20.109375 -41.65625 20.109375 -34.1875 C 20.109375 -26.65625 21.734375 -20.925781 24.984375 -17 C 28.242188 -13.070312 32.941406 -11.109375 39.078125 -11.109375 C 42.265625 -11.109375 45.3125 -11.632812 48.21875 -12.6875 C 51.125 -13.738281 54.109375 -15.414062 57.171875 -17.71875 L 61.859375 -6.984375 C 59.242188 -4.492188 55.875 -2.5625 51.75 -1.1875 C 47.632812 0.175781 43.3125 0.859375 38.78125 0.859375 Z M 38.78125 0.859375 "/></g></g></g><g fill="rgb(100%, 100%, 100%)" fill-opacity="1"><g transform="translate(344.745881, 232.12457)"><g><path d="M 29.015625 0.765625 C 23.847656 0.765625 19.332031 -0.253906 15.46875 -2.296875 C 11.601562 -4.335938 8.632812 -7.273438 6.5625 -11.109375 C 4.488281 -14.941406 3.453125 -19.410156 3.453125 -24.515625 C 3.453125 -29.617188 4.488281 -34.085938 6.5625 -37.921875 C 8.632812 -41.753906 11.601562 -44.691406 15.46875 -46.734375 C 19.332031 -48.773438 23.847656 -49.796875 29.015625 -49.796875 C 34.117188 -49.796875 38.585938 -48.773438 42.421875 -46.734375 C 46.253906 -44.691406 49.207031 -41.753906 51.28125 -37.921875 C 53.351562 -34.085938 54.390625 -29.617188 54.390625 -24.515625 C 54.390625 -19.410156 53.351562 -14.941406 51.28125 -11.109375 C 49.207031 -7.273438 46.253906 -4.335938 42.421875 -2.296875 C 38.585938 -0.253906 34.117188 0.765625 29.015625 0.765625 Z M 29.015625 -10.25 C 32.585938 -10.25 35.316406 -11.425781 37.203125 -13.78125 C 39.085938 -16.144531 40.03125 -19.722656 40.03125 -24.515625 C 40.03125 -29.242188 39.085938 -32.800781 37.203125 -35.1875 C 35.316406 -37.582031 32.585938 -38.78125 29.015625 -38.78125 C 25.378906 -38.78125 22.601562 -37.582031 20.6875 -35.1875 C 18.769531 -32.800781 17.8125 -29.242188 17.8125 -24.515625 C 17.8125 -15.003906 21.546875 -10.25 29.015625 -10.25 Z M 29.015625 -10.25 "/></g></g></g><g fill="rgb(100%, 100%, 100%)" fill-opacity="1"><g transform="translate(402.577411, 232.12457)"><g><path d="M 52.1875 -48.546875 L 52.1875 0 L 38.109375 0 L 38.109375 -7.09375 C 36.578125 -4.53125 34.566406 -2.578125 32.078125 -1.234375 C 29.585938 0.0976562 26.78125 0.765625 23.65625 0.765625 C 17.59375 0.765625 13.054688 -0.925781 10.046875 -4.3125 C 7.046875 -7.695312 5.546875 -12.800781 5.546875 -19.625 L 5.546875 -48.546875 L 20.015625 -48.546875 L 20.015625 -19.34375 C 20.015625 -13.46875 22.535156 -10.53125 27.578125 -10.53125 C 30.578125 -10.53125 33.003906 -11.550781 34.859375 -13.59375 C 36.710938 -15.632812 37.640625 -18.316406 37.640625 -21.640625 L 37.640625 -48.546875 Z M 52.1875 -48.546875 "/></g></g></g><g fill="rgb(100%, 100%, 100%)" fill-opacity="1"><g transform="translate(460.600453, 232.12457)"><g><path d="M 34.09375 -49.703125 C 36.132812 -49.703125 37.859375 -49.382812 39.265625 -48.75 L 39.171875 -35.53125 C 36.804688 -36.613281 34.441406 -37.15625 32.078125 -37.15625 C 28.242188 -37.15625 25.320312 -36.117188 23.3125 -34.046875 C 21.300781 -31.972656 20.296875 -29.082031 20.296875 -25.375 L 20.296875 0 L 5.84375 0 L 5.84375 -34.671875 C 5.84375 -39.835938 5.585938 -44.460938 5.078125 -48.546875 L 18.671875 -48.546875 L 19.625 -40.21875 C 20.84375 -43.28125 22.742188 -45.625 25.328125 -47.25 C 27.910156 -48.882812 30.832031 -49.703125 34.09375 -49.703125 Z M 34.09375 -49.703125 "/></g></g></g><g fill="rgb(100%, 100%, 100%)" fill-opacity="1"><g transform="translate(499.856975, 232.12457)"><g><path d="M 24.421875 0.765625 C 15.222656 0.765625 7.976562 -1.210938 2.6875 -5.171875 L 6.515625 -15.234375 C 9.066406 -13.378906 11.90625 -11.957031 15.03125 -10.96875 C 18.164062 -9.976562 21.359375 -9.484375 24.609375 -9.484375 C 27.097656 -9.484375 29.015625 -9.863281 30.359375 -10.625 C 31.703125 -11.394531 32.375 -12.515625 32.375 -13.984375 C 32.375 -15.191406 31.894531 -16.144531 30.9375 -16.84375 C 29.976562 -17.550781 28.285156 -18.160156 25.859375 -18.671875 L 17.90625 -20.5 C 13.25 -21.519531 9.816406 -23.144531 7.609375 -25.375 C 5.410156 -27.613281 4.3125 -30.582031 4.3125 -34.28125 C 4.3125 -37.28125 5.1875 -39.960938 6.9375 -42.328125 C 8.695312 -44.691406 11.140625 -46.523438 14.265625 -47.828125 C 17.398438 -49.140625 21.007812 -49.796875 25.09375 -49.796875 C 28.539062 -49.796875 31.921875 -49.269531 35.234375 -48.21875 C 38.554688 -47.164062 41.523438 -45.679688 44.140625 -43.765625 L 40.125 -34.09375 C 37.632812 -35.8125 35.097656 -37.117188 32.515625 -38.015625 C 29.929688 -38.910156 27.425781 -39.359375 25 -39.359375 C 22.632812 -39.359375 20.78125 -38.941406 19.4375 -38.109375 C 18.09375 -37.285156 17.421875 -36.140625 17.421875 -34.671875 C 17.421875 -33.585938 17.820312 -32.707031 18.625 -32.03125 C 19.425781 -31.363281 20.847656 -30.804688 22.890625 -30.359375 L 31.03125 -28.53125 C 36.007812 -27.382812 39.613281 -25.660156 41.84375 -23.359375 C 44.082031 -21.066406 45.203125 -18.003906 45.203125 -14.171875 C 45.203125 -9.578125 43.347656 -5.9375 39.640625 -3.25 C 35.941406 -0.570312 30.867188 0.765625 24.421875 0.765625 Z M 24.421875 0.765625 "/></g></g></g><g fill="rgb(100%, 100%, 100%)" fill-opacity="1"><g transform="translate(548.018017, 232.12457)"><g><path d="M 49.421875 -23.078125 L 17.421875 -23.078125 C 17.679688 -18.546875 18.863281 -15.242188 20.96875 -13.171875 C 23.082031 -11.097656 26.210938 -10.0625 30.359375 -10.0625 C 32.847656 -10.0625 35.335938 -10.472656 37.828125 -11.296875 C 40.316406 -12.128906 42.613281 -13.34375 44.71875 -14.9375 L 48.546875 -5.171875 C 46.253906 -3.316406 43.398438 -1.863281 39.984375 -0.8125 C 36.566406 0.238281 33.132812 0.765625 29.6875 0.765625 C 21.507812 0.765625 15.09375 -1.484375 10.4375 -5.984375 C 5.78125 -10.484375 3.453125 -16.628906 3.453125 -24.421875 C 3.453125 -29.335938 4.457031 -33.722656 6.46875 -37.578125 C 8.476562 -41.441406 11.300781 -44.441406 14.9375 -46.578125 C 18.570312 -48.722656 22.691406 -49.796875 27.296875 -49.796875 C 34.128906 -49.796875 39.523438 -47.578125 43.484375 -43.140625 C 47.441406 -38.703125 49.421875 -32.71875 49.421875 -25.1875 Z M 27.671875 -39.640625 C 24.929688 -39.640625 22.710938 -38.84375 21.015625 -37.25 C 19.328125 -35.65625 18.226562 -33.328125 17.71875 -30.265625 L 36.96875 -30.265625 C 36.195312 -36.515625 33.097656 -39.640625 27.671875 -39.640625 Z M 27.671875 -39.640625 "/></g></g></g><g fill="rgb(100%, 100%, 100%)" fill-opacity="1"><g transform="translate(600.675994, 232.12457)"><g><path d="M 5.84375 0 L 5.84375 -48.546875 L 20.296875 -48.546875 L 20.296875 0 Z M 5.0625 -71.296875 L 20.484375 -71.296875 L 20.484375 -57.6875 L 5.0625 -57.6875 Z M 5.0625 -71.296875 "/></g></g></g><g fill="rgb(100%, 100%, 100%)" fill-opacity="1"><g transform="translate(626.91082, 232.12457)"><g><path d="M 57.078125 0 L 39.359375 0 L 20.296875 -21.734375 L 20.296875 0 L 5.84375 0 L 5.84375 -70.484375 L 20.296875 -70.484375 L 20.296875 -27.671875 L 38.5 -48.453125 L 55.828125 -48.453125 L 35.234375 -25.1875 Z M 57.078125 0 "/></g></g></g><g fill="rgb(100%, 100%, 100%)" fill-opacity="1"><g transform="translate(681.774203, 232.12457)"><g><path d="M 52.1875 -48.546875 L 52.1875 0 L 38.109375 0 L 38.109375 -7.09375 C 36.578125 -4.53125 34.566406 -2.578125 32.078125 -1.234375 C 29.585938 0.0976562 26.78125 0.765625 23.65625 0.765625 C 17.59375 0.765625 13.054688 -0.925781 10.046875 -4.3125 C 7.046875 -7.695312 5.546875 -12.800781 5.546875 -19.625 L 5.546875 -48.546875 L 20.015625 -48.546875 L 20.015625 -19.34375 C 20.015625 -13.46875 22.535156 -10.53125 27.578125 -10.53125 C 30.578125 -10.53125 33.003906 -11.550781 34.859375 -13.59375 C 36.710938 -15.632812 37.640625 -18.316406 37.640625 -21.640625 L 37.640625 -48.546875 Z M 52.1875 -48.546875 "/></g></g></g><g fill="rgb(100%, 100%, 100%)" fill-opacity="1"><g transform="translate(739.764199, 232.12457)"><g/></g></g><g clip-path="url(#id2)"><path fill="rgb(100%, 100%, 100%)" d="M 135.8125 164.316406 C 102.6875 133.554688 58.5 114.636719 9.761719 114.636719 L 9.761719 268.796875 C 58.5 268.796875 102.6875 287.714844 135.8125 318.480469 C 168.933594 287.714844 213.121094 268.796875 261.859375 268.796875 L 261.859375 114.636719 C 213.121094 114.636719 168.933594 133.554688 135.8125 164.316406 Z M 135.8125 114.636719 C 158.992188 114.636719 177.828125 95.785156 177.828125 72.59375 C 177.828125 49.398438 158.992188 30.546875 135.8125 30.546875 C 112.632812 30.546875 93.796875 49.398438 93.796875 72.59375 C 93.796875 95.785156 112.632812 114.636719 135.8125 114.636719 Z M 135.8125 114.636719 " fill-opacity="1" fill-rule="nonzero"/></g></svg>