<svg width="397" height="93" viewBox="0 0 397 93" fill="none" xmlns="http://www.w3.org/2000/svg">
<path d="M45.0005 40.8266C37.3792 33.7375 27.2131 29.3776 16 29.3776V64.9043C27.2131 64.9043 37.3792 69.2642 45.0005 76.3533C52.6208 69.2642 62.7869 64.9043 74 64.9043V29.3776C62.7869 29.3776 52.6208 33.7375 45.0005 40.8266ZM45.0005 29.3776C50.3327 29.3776 54.6663 25.0341 54.6663 19.6888C54.6663 14.3434 50.3327 10 45.0005 10C39.6673 10 35.3337 14.3434 35.3337 19.6888C35.3337 25.0341 39.6673 29.3776 45.0005 29.3776Z" fill="white"/>
<path d="M101.322 64.679C97.7648 64.679 94.5638 63.9353 91.7185 62.448C88.9055 60.9283 86.6907 58.8267 85.074 56.143C83.4573 53.4593 82.649 50.42 82.649 47.025C82.649 43.63 83.4573 40.5907 85.074 37.907C86.6907 35.2233 88.9055 33.1378 91.7185 31.6505C94.5638 30.1308 97.7648 29.371 101.322 29.371C104.426 29.371 107.222 29.9207 109.712 31.02C112.202 32.1193 114.271 33.7037 115.92 35.773L109.809 41.302C107.61 38.6507 104.943 37.325 101.807 37.325C99.9635 37.325 98.3145 37.7292 96.8595 38.5375C95.4368 39.3458 94.3213 40.4937 93.513 41.981C92.737 43.436 92.349 45.1173 92.349 47.025C92.349 48.9327 92.737 50.6302 93.513 52.1175C94.3213 53.5725 95.4368 54.7042 96.8595 55.5125C98.3145 56.3208 99.9635 56.725 101.807 56.725C104.943 56.725 107.61 55.3993 109.809 52.748L115.92 58.277C114.271 60.3463 112.202 61.9307 109.712 63.03C107.222 64.1293 104.426 64.679 101.322 64.679ZM136.612 64.679C133.023 64.679 129.789 63.9192 126.912 62.3995C124.066 60.8798 121.819 58.7782 120.17 56.0945C118.554 53.4108 117.745 50.3877 117.745 47.025C117.745 43.6623 118.554 40.6392 120.17 37.9555C121.819 35.2718 124.066 33.1702 126.912 31.6505C129.789 30.1308 133.023 29.371 136.612 29.371C140.201 29.371 143.418 30.1308 146.263 31.6505C149.141 33.1702 151.388 35.2718 153.005 37.9555C154.654 40.6392 155.478 43.6623 155.478 47.025C155.478 50.3877 154.654 53.4108 153.005 56.0945C151.388 58.7782 149.141 60.8798 146.263 62.3995C143.418 63.9192 140.201 64.679 136.612 64.679ZM136.612 56.725C138.325 56.725 139.877 56.3208 141.268 55.5125C142.658 54.7042 143.757 53.5725 144.566 52.1175C145.374 50.6302 145.778 48.9327 145.778 47.025C145.778 45.1173 145.374 43.436 144.566 41.981C143.757 40.4937 142.658 39.3458 141.268 38.5375C139.877 37.7292 138.325 37.325 136.612 37.325C134.898 37.325 133.346 37.7292 131.956 38.5375C130.565 39.3458 129.466 40.4937 128.658 41.981C127.849 43.436 127.445 45.1173 127.445 47.025C127.445 48.9327 127.849 50.6302 128.658 52.1175C129.466 53.5725 130.565 54.7042 131.956 55.5125C133.346 56.3208 134.898 56.725 136.612 56.725ZM176.173 64.679C171.129 64.679 167.201 63.3048 164.388 60.5565C161.607 57.8082 160.217 53.912 160.217 48.868V30.05H169.82V48.577C169.82 54.009 171.97 56.725 176.27 56.725C180.538 56.725 182.672 54.009 182.672 48.577V30.05H192.13V48.868C192.13 53.912 190.723 57.8082 187.91 60.5565C185.13 63.3048 181.217 64.679 176.173 64.679ZM213.476 54.979H208.238V64H198.635V30.05H214.155C217.227 30.05 219.894 30.5673 222.158 31.602C224.421 32.6043 226.167 34.0593 227.396 35.967C228.624 37.8423 229.239 40.0572 229.239 42.6115C229.239 45.0688 228.657 47.219 227.493 49.062C226.361 50.8727 224.728 52.2953 222.594 53.33L229.918 64H219.636L213.476 54.979ZM219.539 42.6115C219.539 41.0272 219.038 39.7985 218.035 38.9255C217.033 38.0525 215.546 37.616 213.573 37.616H208.238V47.5585H213.573C215.546 47.5585 217.033 47.1382 218.035 46.2975C219.038 45.4245 219.539 44.1958 219.539 42.6115ZM246.468 64.679C243.719 64.679 241.052 64.3395 238.465 63.6605C235.878 62.9815 233.777 62.0762 232.16 60.9445L235.313 53.8635C236.832 54.8658 238.594 55.6742 240.599 56.2885C242.604 56.9028 244.576 57.21 246.516 57.21C250.202 57.21 252.045 56.2885 252.045 54.4455C252.045 53.4755 251.512 52.7642 250.445 52.3115C249.41 51.8265 247.729 51.3253 245.401 50.808C242.846 50.2583 240.712 49.6763 238.999 49.062C237.285 48.4153 235.814 47.3968 234.585 46.0065C233.356 44.6162 232.742 42.7408 232.742 40.3805C232.742 38.3112 233.308 36.452 234.44 34.803C235.571 33.1217 237.253 31.796 239.484 30.826C241.747 29.856 244.511 29.371 247.777 29.371C250.008 29.371 252.207 29.6297 254.373 30.147C256.539 30.632 258.447 31.3595 260.096 32.3295L257.138 39.459C253.904 37.713 250.768 36.84 247.729 36.84C245.821 36.84 244.431 37.131 243.558 37.713C242.685 38.2627 242.248 38.9902 242.248 39.8955C242.248 40.8008 242.765 41.4798 243.8 41.9325C244.835 42.3852 246.5 42.854 248.796 43.339C251.382 43.8887 253.516 44.4868 255.198 45.1335C256.911 45.7478 258.382 46.7502 259.611 48.1405C260.872 49.4985 261.503 51.3577 261.503 53.718C261.503 55.755 260.937 57.598 259.805 59.247C258.673 60.896 256.976 62.2217 254.713 63.224C252.449 64.194 249.701 64.679 246.468 64.679ZM293.195 56.5795V64H265.938V30.05H292.565V37.4705H275.444V43.1935H290.528V50.3715H275.444V56.5795H293.195ZM298.524 30.05H308.127V64H298.524V30.05ZM328.054 51.681L324.465 55.5125V64H314.959V30.05H324.465V44.1635L337.609 30.05H348.182L334.311 45.085L348.909 64H337.754L328.054 51.681ZM366.621 64.679C361.577 64.679 357.649 63.3048 354.836 60.5565C352.055 57.8082 350.665 53.912 350.665 48.868V30.05H360.268V48.577C360.268 54.009 362.418 56.725 366.718 56.725C370.986 56.725 373.12 54.009 373.12 48.577V30.05H382.578V48.868C382.578 53.912 381.171 57.8082 378.358 60.5565C375.577 63.3048 371.665 64.679 366.621 64.679Z" fill="white"/>
</svg>
