<svg xmlns="http://www.w3.org/2000/svg" xmlns:xlink="http://www.w3.org/1999/xlink" width="500" zoomAndPan="magnify" viewBox="0 0 375 374.999991" height="500" preserveAspectRatio="xMidYMid meet" version="1.0"><defs><g/><clipPath id="id1"><path d="M 55 119.953125 L 116 119.953125 L 116 234 L 55 234 Z M 55 119.953125 " clip-rule="nonzero"/></clipPath><clipPath id="id2"><path d="M 25.152344 144 L 110 144 L 110 234.703125 L 25.152344 234.703125 Z M 25.152344 144 " clip-rule="nonzero"/></clipPath><clipPath id="id3"><path d="M 72 125 L 178.152344 125 L 178.152344 199 L 72 199 Z M 72 125 " clip-rule="nonzero"/></clipPath></defs><g clip-path="url(#id1)"><path fill="rgb(100%, 100%, 100%)" d="M 115.210938 197.742188 L 115.210938 233.550781 C 99.257812 190.371094 55.351562 189.226562 55.351562 189.226562 L 55.351562 119.953125 C 76.195312 122.566406 89.117188 130.597656 98.652344 138.792969 L 62.832031 157.679688 L 98.734375 163.21875 C 97.164062 170.410156 98.175781 177.863281 101.648438 184.421875 C 104.710938 190.25 109.4375 194.847656 115.210938 197.742188 Z M 115.210938 197.742188 " fill-opacity="1" fill-rule="nonzero"/></g><path fill="rgb(100%, 100%, 100%)" d="M 111.742188 233.316406 C 111.742188 233.316406 98.105469 199.378906 50.027344 194.53125 C 50.027344 167.976562 50.027344 130.113281 50.027344 130.113281 L 40.546875 130.113281 L 40.546875 199.839844 C 40.546875 199.839844 82.609375 198.226562 111.742188 233.316406 Z M 111.742188 233.316406 " fill-opacity="1" fill-rule="nonzero"/><g clip-path="url(#id2)"><path fill="rgb(100%, 100%, 100%)" d="M 34.769531 144.660156 L 34.769531 208.847656 C 34.769531 208.847656 87.238281 204.226562 109.203125 234.703125 C 109.203125 234.703125 92.328125 215.308594 25.296875 214.160156 C 25.296875 195.453125 25.296875 144.664062 25.296875 144.664062 Z M 34.769531 144.660156 " fill-opacity="1" fill-rule="nonzero"/></g><g clip-path="url(#id3)"><path fill="rgb(100%, 100%, 100%)" d="M 165.828125 139.914062 L 152.28125 147.066406 C 154.816406 149.316406 157.015625 152.03125 158.699219 155.210938 C 166.230469 169.46875 160.753906 187.121094 146.503906 194.628906 C 132.230469 202.152344 114.558594 196.695312 107.039062 182.445312 C 103.316406 175.410156 102.785156 167.558594 104.886719 160.5 L 72.957031 155.574219 L 129.140625 125.960938 L 178.015625 133.5 L 167.84375 138.855469 Z M 165.828125 139.914062 " fill-opacity="1" fill-rule="nonzero"/></g><g fill="rgb(100%, 100%, 100%)" fill-opacity="1"><g transform="translate(125.666569, 236.944086)"><g><path d="M 15.140625 0.34375 C 12.453125 0.34375 10.101562 -0.222656 8.09375 -1.359375 C 6.082031 -2.492188 4.539062 -4.085938 3.46875 -6.140625 C 2.40625 -8.203125 1.875 -10.601562 1.875 -13.34375 C 1.875 -16.0625 2.40625 -18.445312 3.46875 -20.5 C 4.539062 -22.5625 6.082031 -24.148438 8.09375 -25.265625 C 10.101562 -26.390625 12.453125 -26.953125 15.140625 -26.953125 C 16.910156 -26.953125 18.597656 -26.679688 20.203125 -26.140625 C 21.816406 -25.609375 23.132812 -24.859375 24.15625 -23.890625 L 22.328125 -19.703125 C 21.128906 -20.597656 19.960938 -21.25 18.828125 -21.65625 C 17.691406 -22.070312 16.5 -22.28125 15.25 -22.28125 C 12.863281 -22.28125 11.035156 -21.519531 9.765625 -20 C 8.492188 -18.476562 7.859375 -16.257812 7.859375 -13.34375 C 7.859375 -10.40625 8.492188 -8.171875 9.765625 -6.640625 C 11.035156 -5.109375 12.863281 -4.34375 15.25 -4.34375 C 16.5 -4.34375 17.691406 -4.546875 18.828125 -4.953125 C 19.960938 -5.367188 21.128906 -6.023438 22.328125 -6.921875 L 24.15625 -2.734375 C 23.132812 -1.753906 21.816406 -0.992188 20.203125 -0.453125 C 18.597656 0.078125 16.910156 0.34375 15.140625 0.34375 Z M 15.140625 0.34375 "/></g></g></g><g fill="rgb(100%, 100%, 100%)" fill-opacity="1"><g transform="translate(153.151811, 236.944086)"><g><path d="M 14.875 0.34375 C 12.238281 0.34375 9.941406 -0.207031 7.984375 -1.3125 C 6.023438 -2.425781 4.515625 -4.019531 3.453125 -6.09375 C 2.398438 -8.164062 1.875 -10.582031 1.875 -13.34375 C 1.875 -16.113281 2.398438 -18.519531 3.453125 -20.5625 C 4.515625 -22.601562 6.023438 -24.175781 7.984375 -25.28125 C 9.941406 -26.394531 12.238281 -26.953125 14.875 -26.953125 C 17.519531 -26.953125 19.8125 -26.394531 21.75 -25.28125 C 23.695312 -24.175781 25.191406 -22.601562 26.234375 -20.5625 C 27.285156 -18.519531 27.8125 -16.113281 27.8125 -13.34375 C 27.8125 -10.582031 27.285156 -8.164062 26.234375 -6.09375 C 25.191406 -4.019531 23.695312 -2.425781 21.75 -1.3125 C 19.8125 -0.207031 17.519531 0.34375 14.875 0.34375 Z M 14.875 -4.21875 C 17.125 -4.21875 18.875 -5.003906 20.125 -6.578125 C 21.382812 -8.148438 22.015625 -10.40625 22.015625 -13.34375 C 22.015625 -16.289062 21.382812 -18.535156 20.125 -20.078125 C 18.875 -21.617188 17.125 -22.390625 14.875 -22.390625 C 12.632812 -22.390625 10.882812 -21.617188 9.625 -20.078125 C 8.363281 -18.535156 7.734375 -16.289062 7.734375 -13.34375 C 7.734375 -10.382812 8.363281 -8.125 9.625 -6.5625 C 10.882812 -5 12.632812 -4.21875 14.875 -4.21875 Z M 14.875 -4.21875 "/></g></g></g><g fill="rgb(100%, 100%, 100%)" fill-opacity="1"><g transform="translate(184.750448, 236.944086)"><g><path d="M 13.953125 0.34375 C 10.210938 0.34375 7.367188 -0.613281 5.421875 -2.53125 C 3.472656 -4.457031 2.5 -7.28125 2.5 -11 L 2.5 -26.625 L 8.21875 -26.625 L 8.21875 -10.734375 C 8.21875 -8.609375 8.710938 -6.988281 9.703125 -5.875 C 10.691406 -4.769531 12.109375 -4.21875 13.953125 -4.21875 C 15.796875 -4.21875 17.203125 -4.769531 18.171875 -5.875 C 19.140625 -6.988281 19.625 -8.609375 19.625 -10.734375 L 19.625 -26.625 L 25.390625 -26.625 L 25.390625 -11 C 25.390625 -7.300781 24.410156 -4.484375 22.453125 -2.546875 C 20.492188 -0.617188 17.660156 0.34375 13.953125 0.34375 Z M 13.953125 0.34375 "/></g></g></g><g fill="rgb(100%, 100%, 100%)" fill-opacity="1"><g transform="translate(214.516752, 236.944086)"><g><path d="M 25.125 0 L 18.953125 0 L 15.546875 -8.859375 C 15.273438 -9.554688 14.859375 -10.039062 14.296875 -10.3125 C 13.734375 -10.59375 13.03125 -10.734375 12.1875 -10.734375 L 8.40625 -10.734375 L 8.40625 0 L 2.65625 0 L 2.65625 -26.625 L 14.5 -26.625 C 17.59375 -26.625 19.9375 -25.945312 21.53125 -24.59375 C 23.132812 -23.25 23.9375 -21.320312 23.9375 -18.8125 C 23.9375 -17.039062 23.46875 -15.519531 22.53125 -14.25 C 21.59375 -12.976562 20.253906 -12.066406 18.515625 -11.515625 C 20.078125 -11.191406 21.207031 -10.109375 21.90625 -8.265625 Z M 13.640625 -15.1875 C 15.316406 -15.1875 16.539062 -15.460938 17.3125 -16.015625 C 18.082031 -16.578125 18.46875 -17.457031 18.46875 -18.65625 C 18.46875 -19.851562 18.082031 -20.734375 17.3125 -21.296875 C 16.539062 -21.859375 15.316406 -22.140625 13.640625 -22.140625 L 8.34375 -22.140625 L 8.34375 -15.1875 Z M 13.640625 -15.1875 "/></g></g></g><g fill="rgb(100%, 100%, 100%)" fill-opacity="1"><g transform="translate(242.862061, 236.944086)"><g><path d="M 11.96875 0.34375 C 9.945312 0.34375 8.003906 0.078125 6.140625 -0.453125 C 4.285156 -0.992188 2.75 -1.753906 1.53125 -2.734375 L 3.40625 -6.921875 C 5.96875 -5.117188 8.832031 -4.21875 12 -4.21875 C 13.695312 -4.21875 15 -4.484375 15.90625 -5.015625 C 16.820312 -5.554688 17.28125 -6.316406 17.28125 -7.296875 C 17.28125 -8.140625 16.859375 -8.800781 16.015625 -9.28125 C 15.179688 -9.769531 13.71875 -10.238281 11.625 -10.6875 C 9.28125 -11.164062 7.414062 -11.742188 6.03125 -12.421875 C 4.65625 -13.109375 3.648438 -13.945312 3.015625 -14.9375 C 2.378906 -15.925781 2.0625 -17.15625 2.0625 -18.625 C 2.0625 -20.21875 2.503906 -21.648438 3.390625 -22.921875 C 4.273438 -24.191406 5.515625 -25.179688 7.109375 -25.890625 C 8.703125 -26.597656 10.546875 -26.953125 12.640625 -26.953125 C 14.535156 -26.953125 16.351562 -26.675781 18.09375 -26.125 C 19.84375 -25.582031 21.238281 -24.835938 22.28125 -23.890625 L 20.421875 -19.703125 C 18.078125 -21.492188 15.492188 -22.390625 12.671875 -22.390625 C 11.179688 -22.390625 9.984375 -22.09375 9.078125 -21.5 C 8.179688 -20.90625 7.734375 -20.09375 7.734375 -19.0625 C 7.734375 -18.46875 7.898438 -17.96875 8.234375 -17.5625 C 8.578125 -17.164062 9.144531 -16.8125 9.9375 -16.5 C 10.738281 -16.195312 11.875 -15.894531 13.34375 -15.59375 C 16.757812 -14.84375 19.222656 -13.867188 20.734375 -12.671875 C 22.242188 -11.472656 23 -9.84375 23 -7.78125 C 23 -5.28125 22.023438 -3.300781 20.078125 -1.84375 C 18.128906 -0.382812 15.425781 0.34375 11.96875 0.34375 Z M 11.96875 0.34375 "/></g></g></g><g fill="rgb(100%, 100%, 100%)" fill-opacity="1"><g transform="translate(269.300257, 236.944086)"><g><path d="M 2.65625 0 L 2.65625 -26.625 L 21.015625 -26.625 L 21.015625 -22.09375 L 8.34375 -22.09375 L 8.34375 -15.8125 L 20.234375 -15.8125 L 20.234375 -11.25 L 8.34375 -11.25 L 8.34375 -4.53125 L 21.015625 -4.53125 L 21.015625 0 Z M 2.65625 0 "/></g></g></g><g fill="rgb(100%, 100%, 100%)" fill-opacity="1"><g transform="translate(293.56957, 236.944086)"><g><path d="M 2.65625 0 L 2.65625 -26.625 L 8.484375 -26.625 L 8.484375 0 Z M 2.65625 0 "/></g></g></g><g fill="rgb(100%, 100%, 100%)" fill-opacity="1"><g transform="translate(306.620548, 236.944086)"><g><path d="M 27.109375 0 L 20.078125 0 L 8.484375 -12.296875 L 8.484375 0 L 2.65625 0 L 2.65625 -26.625 L 8.484375 -26.625 L 8.484375 -14.921875 L 19.671875 -26.625 L 26.625 -26.625 L 14.25 -13.90625 Z M 27.109375 0 "/></g></g></g><g fill="rgb(100%, 100%, 100%)" fill-opacity="1"><g transform="translate(334.105787, 236.944086)"><g><path d="M 13.953125 0.34375 C 10.210938 0.34375 7.367188 -0.613281 5.421875 -2.53125 C 3.472656 -4.457031 2.5 -7.28125 2.5 -11 L 2.5 -26.625 L 8.21875 -26.625 L 8.21875 -10.734375 C 8.21875 -8.609375 8.710938 -6.988281 9.703125 -5.875 C 10.691406 -4.769531 12.109375 -4.21875 13.953125 -4.21875 C 15.796875 -4.21875 17.203125 -4.769531 18.171875 -5.875 C 19.140625 -6.988281 19.625 -8.609375 19.625 -10.734375 L 19.625 -26.625 L 25.390625 -26.625 L 25.390625 -11 C 25.390625 -7.300781 24.410156 -4.484375 22.453125 -2.546875 C 20.492188 -0.617188 17.660156 0.34375 13.953125 0.34375 Z M 13.953125 0.34375 "/></g></g></g></svg>